<?xml version="1.0" encoding="utf-8"?>
<!-- Generator: Adobe Illustrator 27.1.1, SVG Export Plug-In . SVG Version: 6.00 Build 0)  -->
<svg version="1.1" id="Calque_1" xmlns="http://www.w3.org/2000/svg" xmlns:xlink="http://www.w3.org/1999/xlink" x="0px" y="0px"
	 viewBox="0 0 145 145" style="enable-background:new 0 0 145 145;" xml:space="preserve">
<path d="M100.6,48.7c12.7,10.1,35.7,5.2,39.2,8.4c3.4,3.2-12.8,14.4-16,31.8c-3.1,17.3,6.9,40.7,2.2,50.4c-4.6,9.6-23.7,5.4-34-6.9
	s-11.7-32.6-26-39.1c-14.3-6.5-41.6,0.9-53.4-4.1c-11.8-4.9-8.2-22.4-1.6-37.7c6.5-15.3,16-28.6,28.5-38.8
	c12.5-10.1,28.1-17.2,37-8.1C85.3,13.5,87.9,38.6,100.6,48.7z"/>
</svg>
