<?xml version="1.0" encoding="utf-8"?>
<!-- Generator: Adobe Illustrator 27.0.1, SVG Export Plug-In . SVG Version: 6.00 Build 0)  -->
<svg version="1.1" id="Calque_1" xmlns="http://www.w3.org/2000/svg" xmlns:xlink="http://www.w3.org/1999/xlink" x="0px" y="0px"
	 viewBox="0 0 145 145" style="enable-background:new 0 0 145 145;" xml:space="preserve">
<path d="M77.4,56.5c14.8,6.8,43.3-1.3,50.1,1.8c6.8,3.1-8.4,17.5-16.6,31.4c-8.1,13.9-9.6,27.2-17,31.4c-7.2,4.1-20.4-0.9-38.1,5.3
	C38.2,132.6,16,150,15.8,143.6c-0.1-6.5,21.5-36.8,32.3-52.3C58.8,76,58.4,75.6,48.1,61C37.7,46.4,17.4,17.6,17.7,6.1
	c0.3-11.5,21.5-5.5,32.7,8.3C61.5,28.1,62.5,49.7,77.4,56.5z"/>
</svg>
