<?xml version="1.0" encoding="utf-8"?>
<!-- Generator: Adobe Illustrator 27.1.1, SVG Export Plug-In . SVG Version: 6.00 Build 0)  -->
<svg version="1.1" id="Calque_1" xmlns="http://www.w3.org/2000/svg" xmlns:xlink="http://www.w3.org/1999/xlink" x="0px" y="0px"
	 viewBox="0 0 145 145" style="enable-background:new 0 0 145 145;" xml:space="preserve">
<path d="M98.2,19c3.8,14.5-4.6,33.9,4.2,50.3c8.7,16.3,34.8,29.6,40.6,44.2c6,14.5-8.2,30.3-24.8,30.8
	c-16.8,0.7-36.1-13.8-47.7-24.6C58.9,109,55.2,102,43.3,99.8c-11.8-2.3-31.7,0.3-39.2-5.3c-7.4-5.6-2.3-19.3,8.5-24.3
	c10.9-5.2,27.7-1.7,37-14.3C59,43.1,60.8,14.2,69.7,4.6C78.5-5.1,94.4,4.5,98.2,19z"/>
</svg>
