<?xml version="1.0" encoding="utf-8"?>
<!-- Generator: Adobe Illustrator 27.0.1, SVG Export Plug-In . SVG Version: 6.00 Build 0)  -->
<svg version="1.1" id="Calque_1" xmlns="http://www.w3.org/2000/svg" xmlns:xlink="http://www.w3.org/1999/xlink" x="0px" y="0px"
	 viewBox="0 0 145 145" style="enable-background:new 0 0 145 145;" xml:space="preserve">
<path id="Vector" d="M101.6,20.2c4.8,14.9-1.6,33.8,5.3,49.7c7,15.9,27.3,28.7,30.7,41.5c3.3,12.7-10.3,25.4-25.3,30.5
	c-14.9,5.1-31.2,2.5-43.4-3.1c-12.2-5.7-20.3-14.4-31.8-20.6s-26.5-9.8-29.6-17.7c-3.2-7.9,5.4-20.1,15.6-25.7
	C33.2,69.1,44.8,70,52,55.9c7.3-14.1,10-43.1,19.4-52.2C80.8-5.5,96.8,5.3,101.6,20.2z"/>
</svg>
