<?xml version="1.0" encoding="utf-8"?>
<!-- Generator: Adobe Illustrator 27.2.0, SVG Export Plug-In . SVG Version: 6.00 Build 0)  -->
<svg version="1.1" id="Calque_1" xmlns="http://www.w3.org/2000/svg" xmlns:xlink="http://www.w3.org/1999/xlink" x="0px" y="0px"
	 viewBox="0 0 145 145" style="enable-background:new 0 0 145 145;" xml:space="preserve">
<path d="M106.3,23.7c9.3,9.6,14.1,22.6,13.2,34c-1,11.5-7.5,21.4-12.8,30.1c-5.3,8.6-9.1,15.8-15.2,23.2c-6,7.4-14.1,15-27.9,22.7
	c-13.8,7.6-33,15.5-35,6.8c-1.9-8.7,13.6-34.1,19.6-48.6c5.9-14.4,2.4-18.1-5.6-32.3C34.6,45.3,22.4,20.6,26,9.1
	c3.7-11.4,23.5-9.4,40.2-5.3C83.2,8,96.9,14.1,106.3,23.7z"/>
</svg>
