<?xml version="1.0" encoding="utf-8"?>
<!-- Generator: Adobe Illustrator 27.2.0, SVG Export Plug-In . SVG Version: 6.00 Build 0)  -->
<svg version="1.1" id="Calque_1" xmlns="http://www.w3.org/2000/svg" xmlns:xlink="http://www.w3.org/1999/xlink" x="0px" y="0px"
	 viewBox="0 0 145 145" style="enable-background:new 0 0 145 145;" xml:space="preserve">
<path d="M119.4,14.1c11.3,12.8,10.9,37.1,7.3,55.5c-3.5,18.4-10.5,30.9-14.3,44.8c-3.9,13.7-5,28.9-12.9,30.2
	c-7.9,1.3-22.6-11.2-32-18.5c-9.5-7.3-13.6-9.2-20.8-10.8c-7.2-1.6-17.1-2.7-15.8-5.7c1.3-3.2,14.1-8.3,9.8-26.1
	c-4.3-18-25.4-48.6-24.7-64.8C16.8,2.3,39.5,0.6,62.3,0.4C85.1,0.3,108.1,1.4,119.4,14.1z"/>
</svg>
