<?xml version="1.0" encoding="utf-8"?>
<!-- Generator: Adobe Illustrator 27.2.0, SVG Export Plug-In . SVG Version: 6.00 Build 0)  -->
<svg version="1.1" id="Calque_1" xmlns="http://www.w3.org/2000/svg" xmlns:xlink="http://www.w3.org/1999/xlink" x="0px" y="0px"
	 viewBox="0 0 145 145" style="enable-background:new 0 0 145 145;" xml:space="preserve">
<path d="M97.3,48.2c8.7,0.2,21.1,1.5,30.9,9c9.9,7.4,17.2,21.1,16.2,34.6c-1.1,13.4-10.4,26.6-22.7,31.3c-12.3,4.7-27.8,1-41.6-1
	c-13.9-2-26.5-2.4-32.5-9.1s-5.7-20.1-15.7-33.9C21.9,65.2,1.6,50.9,0.5,39c-1.2-11.9,16.7-21.2,32.9-19
	c16.2,2.3,30.6,16.1,40.3,22.6C83.6,49,88.6,48.1,97.3,48.2z"/>
</svg>
