<?xml version="1.0" encoding="utf-8"?>
<!-- Generator: Adobe Illustrator 27.2.0, SVG Export Plug-In . SVG Version: 6.00 Build 0)  -->
<svg version="1.1" id="Calque_1" xmlns="http://www.w3.org/2000/svg" xmlns:xlink="http://www.w3.org/1999/xlink" x="0px" y="0px"
	 viewBox="0 0 341 237" style="enable-background:new 0 0 341 237;" xml:space="preserve">
<style type="text/css">
	.st0{fill:none;stroke:#FFFFFF;stroke-width:11;}
</style>
<path class="st0" d="M173.2,30.3c84,0,152.2,37.1,152.2,82.9s-68.1,82.9-152.2,82.9S21,159,21,113.2c0-24.6,19.7-46.8,51-62
	C99,38.2,134.4,30.3,173.2,30.3z"/>
<path class="st0" d="M190.4,38.3c81.3,20.3,138.3,72.6,127.3,116.9c-11,44.3-85.9,63.8-167.3,43.5S12.1,126.2,23.2,81.9
	c5.9-23.8,30.3-40.4,64.1-47.6C116.5,28.1,152.8,29,190.4,38.3z"/>
</svg>
