<?xml version="1.0" encoding="UTF-8"?><svg id="Calque_8" xmlns="http://www.w3.org/2000/svg" xmlns:xlink="http://www.w3.org/1999/xlink" viewBox="0 0 100 100"><defs><style>.cls-1{fill:#422b0d;}.cls-2{fill:#896024;}.cls-3{fill:url(#Dégradé_sans_nom_8);}.cls-4{fill:#eb8f00;}.cls-5{fill:url(#Dégradé_sans_nom_9);}.cls-6{fill:url(#Dégradé_sans_nom_10);}</style><radialGradient id="Dégradé_sans_nom_8" cx="-.71" cy="-1.48" fx="-.71" fy="-1.48" r="7.73" gradientTransform="translate(54.71 39.09) scale(6.26 -6.26)" gradientUnits="userSpaceOnUse"><stop offset="0" stop-color="#fde030"/><stop offset=".5" stop-color="#fde030"/><stop offset=".92" stop-color="#f7c02b"/><stop offset="1" stop-color="#f4a223"/></radialGradient><linearGradient id="Dégradé_sans_nom_9" x1="-4.12" y1=".36" x2="3.61" y2=".36" gradientTransform="translate(54.71 45.23) rotate(-90) scale(12.28 -12.28)" gradientUnits="userSpaceOnUse"><stop offset="0" stop-color="#f4a223"/><stop offset=".08" stop-color="#f7c02b"/><stop offset=".29" stop-color="#f9ce2d" stop-opacity=".55"/><stop offset=".54" stop-color="#fde030" stop-opacity="0"/><stop offset="1" stop-color="#fde030" stop-opacity="0"/></linearGradient><radialGradient id="Dégradé_sans_nom_10" cx="-3.2" cy="-3.98" fx="-3.2" fy="-3.98" r="7.73" gradientTransform="translate(52.27 41.34) scale(6.53 -6.14)" gradientUnits="userSpaceOnUse"><stop offset="0" stop-color="#fff176"/><stop offset=".27" stop-color="#fff176"/><stop offset="1" stop-color="#ffc400"/></radialGradient></defs><path class="cls-3" d="m50.24,95.78c6.52,0,12.74-1.07,18.66-3.21,5.92-2.14,11.14-5.18,15.67-9.1,4.83-4.35,8.53-9.49,11.09-15.44s3.85-12.51,3.85-19.7-1.28-13.78-3.85-19.79-6.26-11.15-11.09-15.44c-4.53-3.98-9.74-7.02-15.62-9.1S56.82.87,50.24.87c-4.77,0-9.51.6-14.22,1.81s-9.16,3.03-13.36,5.48c-4.2,2.45-7.92,5.55-11.18,9.33s-5.83,8.23-7.7,13.36S.97,41.81.97,48.33s.94,12.33,2.81,17.43,4.44,9.54,7.7,13.31c3.26,3.77,6.99,6.9,11.18,9.37,4.2,2.48,8.65,4.32,13.36,5.52,4.71,1.21,9.45,1.81,14.22,1.81Z"/><path class="cls-5" d="m50.24,95.78c6.52,0,12.74-1.07,18.66-3.21,5.92-2.14,11.14-5.18,15.67-9.1,4.83-4.35,8.53-9.49,11.09-15.44s3.85-12.51,3.85-19.7-1.28-13.78-3.85-19.79-6.26-11.15-11.09-15.44c-4.53-3.98-9.74-7.02-15.62-9.1S56.82.87,50.24.87c-4.77,0-9.51.6-14.22,1.81s-9.16,3.03-13.36,5.48c-4.2,2.45-7.92,5.55-11.18,9.33s-5.83,8.23-7.7,13.36S.97,41.81.97,48.33s.94,12.33,2.81,17.43,4.44,9.54,7.7,13.31c3.26,3.77,6.99,6.9,11.18,9.37,4.2,2.48,8.65,4.32,13.36,5.52,4.71,1.21,9.45,1.81,14.22,1.81Z"/><path class="cls-4" d="m90.9,20.07c5.74,7.91,8.6,17.33,8.6,28.26,0,7.18-1.28,13.75-3.85,19.7s-6.26,11.09-11.09,15.44c-4.53,3.92-9.75,6.96-15.67,9.1-5.92,2.14-12.14,3.21-18.66,3.21-5.43,0-10.84-.8-16.21-2.4-5.37-1.6-10.35-4.03-14.94-7.29s-8.42-7.37-11.5-12.32c3.2,4.41,7,8.04,11.41,10.91s9.15,5.01,14.22,6.43c5.07,1.42,10.17,2.13,15.3,2.13,6.52,0,12.74-1.07,18.66-3.21,5.92-2.14,11.14-5.18,15.67-9.1,4.89-4.35,8.6-9.51,11.14-15.49,2.54-5.98,3.8-12.53,3.8-19.65,0-9.72-2.29-18.29-6.88-25.72Z"/><path class="cls-6" d="m1.6,58.65c.6-.72,1.57-1.1,2.9-1.13s2.41.32,3.26,1.04c1.03.91,1.83,1.93,2.4,3.08s1.16,2.9,1.77,5.25c.3,1.27.72,2.22,1.27,2.85s1.24,1.1,2.08,1.4c.91.3,2.51.02,4.8-.86s4.83-2.19,7.61-3.94c1.87-1.15,4.03-2.23,6.48-3.26s4.85-1.77,7.2-2.22c2.35-.45,4.38-.44,6.07.05,1.69.48,2.58,1.37,2.67,2.67s-.35,2.37-1.31,3.21c-.66.6-2.14,1.22-4.44,1.86-2.29.63-4.59,1.46-6.88,2.49-1.75.72-3.26,1.75-4.53,3.08l.32-.05c.21-.03.62.05,1.22.23,1.39.42,2.17,1.16,2.35,2.22s.03,2.07-.45,3.03c-.24.6-.6,1.18-1.09,1.72l.72.36c.48.24.88.68,1.18,1.31s.21,1.58-.27,2.85c-.3.66-.82,1.18-1.54,1.54,1.39.66,1.99,1.75,1.81,3.26-.18,1.63-1.24,3.02-3.17,4.17-1.93,1.15-4.53,2.2-7.79,3.17-3.32.97-6.31,1.15-8.97.54-2.66-.6-5.04-1.66-7.15-3.17-2.29-1.63-3.92-3.67-4.89-6.11s-1.42-5.18-1.36-8.2c0-1.81.11-3.31.32-4.48s.35-2.38.41-3.62-.15-2.88-.63-4.94c-.18-.85-.57-1.89-1.18-3.12s-1.07-2.45-1.4-3.62-.26-2.07.23-2.67Z"/><path class="cls-4" d="m50.69,63.18c.12,1.57-.15,2.81-.82,3.71s-1.55,1.6-2.67,2.08-2.28.91-3.49,1.27c-2.9.72-4.91,1.43-6.02,2.13l-1.68,1.04.54.45c.36.3.63.63.82,1,.3.54.48,1.3.54,2.26s-.12,2.11-.54,3.44c.48.42.83,1.03,1.04,1.81s.29,1.51.23,2.17c-.06.97-.26,1.77-.59,2.4l-.5.95c1.15,2.05,1.4,3.85.77,5.39s-1.81,2.81-3.53,3.8-3.76,1.71-6.11,2.13-4.68.51-6.97.27c-3.26-.3-5.89-.91-7.88-1.81s-3.44-1.78-4.35-2.63l-1.36-1.27c3.38,1.75,6.26,2.91,8.65,3.49,2.38.57,4.47.8,6.25.68s3.43-.33,4.94-.63c2.54-.54,4.45-1.27,5.75-2.17s2.07-1.84,2.31-2.81c.18-.66.23-1.21.14-1.63s-.2-.75-.32-1c-.91.72-1.92,1.33-3.03,1.81s-2.22.72-3.31.72-1.68-.2-1.77-.59l-.14-.59c1.63-.18,3.17-.68,4.62-1.49s2.51-1.62,3.17-2.4c.6-.78.98-1.65,1.13-2.58s-.23-1.74-1.13-2.4c-1.15.91-2.41,1.57-3.8,1.99s-2.26.66-2.63.72c-1.27.12-2.01-.02-2.22-.41l-.32-.59c.85.06,1.89-.18,3.12-.72s2.4-1.21,3.49-1.99,1.87-1.54,2.35-2.26c.36-.6.41-1.4.14-2.4s-.8-1.65-1.58-1.95l-1.27.63c-.85.42-1.78.88-2.81,1.36s-1.75.85-2.17,1.09c-.66.3-1.21.44-1.63.41l-.63-.05c1.81-1.99,3.85-3.61,6.11-4.85s4.5-2.26,6.7-3.08,4.18-1.54,5.93-2.17,3.02-1.34,3.8-2.13c.97-.85,1.24-1.77.82-2.76s-1.09-1.58-1.99-1.77c-1.45-.42-3.25-.42-5.39,0-2.14.42-4.36,1.13-6.66,2.13-2.29,1-4.38,2.07-6.25,3.21-1.51.97-3.14,1.95-4.89,2.94s-3.41,1.77-4.98,2.31-2.84.69-3.8.45c-1.39-.36-2.34-.97-2.85-1.81s-.95-1.93-1.31-3.26c-.42-1.63-.8-3.08-1.13-4.35s-.82-2.29-1.45-3.08-1.62-1.24-2.94-1.36c-1.39-.18-2.16.06-2.31.72s-.05,1.51.32,2.54.63,1.96.82,2.81c.85,3.2,1.22,5.98,1.13,8.33s-.32,4.18-.68,5.48l-.54,1.95.09-1.86c.06-1.24.03-2.81-.09-4.71s-.39-3.82-.82-5.75-.85-3.38-1.27-4.35-.77-1.78-1.04-2.45-.32-1.51-.14-2.54c.12-.91.71-1.54,1.77-1.9s2.2-.45,3.44-.27,2.16.54,2.76,1.09c1.15,1.03,1.93,2.13,2.35,3.31s.94,3.03,1.54,5.57c.3,1.09.63,1.86,1,2.31s.85.86,1.45,1.22c.3.18.77.32,1.4.41s1.77-.21,3.4-.91,4.08-2.1,7.34-4.21c1.51-1.03,3.28-1.99,5.3-2.9s4.09-1.66,6.2-2.26c2.11-.6,4.06-.95,5.84-1.04s3.25.18,4.39.82,1.78,1.74,1.9,3.31Z"/><path class="cls-4" d="m12.02,64.63l-.05,1.4c-.03.94.17,1.93.59,2.99s1.33,1.77,2.72,2.13c1.09.3,2.2.23,3.35-.23s2.22-1.03,3.21-1.72,1.8-1.33,2.4-1.9l.91-.86c-2.23,1.21-4.18,1.81-5.84,1.81s-3.02-.3-4.08-.91-1.86-1.21-2.4-1.81l-.82-.91Z"/><path class="cls-4" d="m37.83,76.04l-2.63-2.81c.78-.85,1.86-1.48,3.21-1.9,1.36-.42,2.58-.72,3.67-.91l1.63-.27c-1.27.48-2.34,1.19-3.21,2.13s-1.54,1.8-1.99,2.58l-.68,1.18Z"/><path class="cls-1" d="m61.47,55.48c.66.06,1.18-.18,1.54-.72s.36-1.09,0-1.63c-.54-.85-1.09-1.63-1.63-2.35-2.54-3.02-5.55-5.15-9.06-6.38s-7.09-1.57-10.78-1-7.03,2.1-10.05,4.57c-.48.42-.63.97-.45,1.63.18.6.6.97,1.27,1.09h0c.24.06.48.03.72-.09,4.71-1.75,9.54-2.2,14.49-1.36,4.95.78,9.36,2.75,13.22,5.89.18.18.42.3.72.36Z"/><path class="cls-1" d="m64.79,21.34c-1.75,0-3.32.71-4.71,2.13-1.39,1.42-2.08,3.37-2.08,5.84s.69,4.42,2.08,5.84c1.39,1.42,2.96,2.13,4.71,2.13s3.32-.71,4.71-2.13c1.39-1.42,2.08-3.37,2.08-5.84s-.69-4.42-2.08-5.84c-1.39-1.42-2.96-2.13-4.71-2.13Z"/><path class="cls-1" d="m35.39,13.6c1.75,0,3.32.71,4.71,2.13s2.08,3.37,2.08,5.84-.69,4.42-2.08,5.84-2.96,2.13-4.71,2.13-3.32-.71-4.71-2.13-2.08-3.37-2.08-5.84.69-4.42,2.08-5.84,2.96-2.13,4.71-2.13Z"/><path class="cls-1" d="m29.95,3.95h0c.42.72,1.06,1.09,1.9,1.09,5.01.18,9.42,1.87,13.22,5.07l.09.09c.42.36.92.56,1.49.59s1.1-.17,1.58-.59c.97-.78,1.12-1.69.45-2.72-.06-.12-.12-.21-.18-.27-1.09-1.39-2.35-2.57-3.8-3.53C40.73.9,36.32-.12,31.49.6c-.78.12-1.36.54-1.72,1.27-.3.72-.24,1.42.18,2.08Z"/><path class="cls-1" d="m75.14,19.07h0c-.78.48-1.54.48-2.26,0-4.41-2.29-9.06-2.99-13.95-2.08h-.09c-1.33.3-2.23-.15-2.72-1.36s-.15-2.08,1-2.63l.27-.18c1.63-.66,3.32-1.06,5.07-1.18,4.83-.48,9.18.82,13.04,3.89.6.48.88,1.12.82,1.9-.12.72-.51,1.27-1.18,1.63Z"/><path class="cls-2" d="m35.22,16.26c.43.3.7.74.79,1.33.1.59-.06,1.18-.49,1.79-.42.61-.93.97-1.51,1.08-.58.11-1.09.02-1.52-.28-.43-.3-.7-.74-.79-1.33-.1-.59.06-1.18.49-1.79.42-.61.93-.97,1.51-1.08.58-.11,1.09-.02,1.52.28Z"/><path class="cls-2" d="m64.61,23.52c.43.3.7.74.79,1.33.1.59-.06,1.18-.49,1.79-.42.61-.93.97-1.51,1.08s-1.09.02-1.52-.28c-.43-.3-.7-.74-.79-1.33-.1-.59.06-1.18.49-1.79.42-.61.93-.97,1.51-1.08.58-.11,1.09-.02,1.52.28Z"/></svg>