<?xml version="1.0" encoding="UTF-8"?><svg id="Calque_1" xmlns="http://www.w3.org/2000/svg" viewBox="0 0 200 200"><defs><style>.cls-1{fill:#3b323a;}</style></defs><rect class="cls-1" x="48.58" width="3.03" height="5"/><rect class="cls-1" x="48.58" y="15" width="3.03" height="10.03"/><rect class="cls-1" x="48.58" y="34.98" width="3.03" height="10.03"/><rect class="cls-1" x="48.58" y="54.96" width="3.03" height="10.03"/><rect class="cls-1" x="48.58" y="74.93" width="3.03" height="10.03"/><rect class="cls-1" x="48.58" y="94.91" width="3.03" height="10.03"/><rect class="cls-1" x="48.58" y="114.89" width="3.03" height="10.03"/><rect class="cls-1" x="48.58" y="134.87" width="3.03" height="10.03"/><rect class="cls-1" x="48.58" y="154.85" width="3.03" height="10.03"/><rect class="cls-1" x="48.58" y="174.82" width="3.03" height="10.03"/><rect class="cls-1" x="48.58" y="194.8" width="3.03" height="5.2"/><rect class="cls-1" x="148.59" width="3.03" height="5"/><rect class="cls-1" x="148.59" y="15" width="3.03" height="10.03"/><rect class="cls-1" x="148.59" y="34.98" width="3.03" height="10.03"/><rect class="cls-1" x="148.59" y="54.96" width="3.03" height="10.03"/><rect class="cls-1" x="148.59" y="74.93" width="3.03" height="10.03"/><rect class="cls-1" x="148.59" y="94.91" width="3.03" height="10.03"/><rect class="cls-1" x="148.59" y="114.89" width="3.03" height="10.03"/><rect class="cls-1" x="148.59" y="134.87" width="3.03" height="10.03"/><rect class="cls-1" x="148.59" y="154.85" width="3.03" height="10.03"/><rect class="cls-1" x="148.59" y="174.82" width="3.03" height="10.03"/><rect class="cls-1" x="148.59" y="194.8" width="3.03" height="5.2"/><rect class="cls-1" x="195.98" y="47.52" width="3.03" height="5" transform="translate(247.52 -147.48) rotate(90)"/><rect class="cls-1" x="178.47" y="45.01" width="3.03" height="10.03" transform="translate(230.01 -129.97) rotate(90)"/><rect class="cls-1" x="158.49" y="45.01" width="3.03" height="10.03" transform="translate(210.03 -109.99) rotate(90)"/><rect class="cls-1" x="138.51" y="45.01" width="3.03" height="10.03" transform="translate(190.05 -90.01) rotate(90)"/><rect class="cls-1" x="118.54" y="45.01" width="3.03" height="10.03" transform="translate(170.07 -70.03) rotate(90)"/><rect class="cls-1" x="98.56" y="45.01" width="3.03" height="10.03" transform="translate(150.09 -50.05) rotate(90)"/><rect class="cls-1" x="78.58" y="45.01" width="3.03" height="10.03" transform="translate(130.12 -30.08) rotate(90)"/><rect class="cls-1" x="58.6" y="45.01" width="3.03" height="10.03" transform="translate(110.14 -10.1) rotate(90)"/><rect class="cls-1" x="38.62" y="45.01" width="3.03" height="10.03" transform="translate(90.16 9.88) rotate(90)"/><rect class="cls-1" x="18.65" y="45.01" width="3.03" height="10.03" transform="translate(70.18 29.86) rotate(90)"/><rect class="cls-1" x="1.08" y="47.42" width="3.03" height="5.2" transform="translate(52.62 47.42) rotate(90)"/><rect class="cls-1" x="195.98" y="147.51" width="3.03" height="5" transform="translate(347.51 -47.49) rotate(90)"/><rect class="cls-1" x="178.47" y="145" width="3.03" height="10.03" transform="translate(330 -29.98) rotate(90)"/><rect class="cls-1" x="158.49" y="145" width="3.03" height="10.03" transform="translate(310.02 -10) rotate(90)"/><rect class="cls-1" x="138.51" y="145" width="3.03" height="10.03" transform="translate(290.04 9.98) rotate(90)"/><rect class="cls-1" x="118.54" y="145" width="3.03" height="10.03" transform="translate(270.06 29.96) rotate(90)"/><rect class="cls-1" x="98.56" y="145" width="3.03" height="10.03" transform="translate(250.09 49.94) rotate(90)"/><rect class="cls-1" x="78.58" y="145" width="3.03" height="10.03" transform="translate(230.11 69.91) rotate(90)"/><rect class="cls-1" x="58.6" y="145" width="3.03" height="10.03" transform="translate(210.13 89.89) rotate(90)"/><rect class="cls-1" x="38.62" y="145" width="3.03" height="10.03" transform="translate(190.15 109.87) rotate(90)"/><rect class="cls-1" x="18.65" y="145" width="3.03" height="10.03" transform="translate(170.17 129.85) rotate(90)"/><rect class="cls-1" x="1.08" y="147.41" width="3.03" height="5.2" transform="translate(152.61 147.41) rotate(90)"/></svg>