<?xml version="1.0" encoding="UTF-8"?>
<svg id="Calque_2" data-name="Calque 2" xmlns="http://www.w3.org/2000/svg" viewBox="0 0 50 50">
  <defs>
    <style>
      .cls-1 {
        fill: #f66;
      }

      .cls-2 {
        fill: none;
      }
    </style>
  </defs>
  <g id="Icones">
    <g>
      <rect class="cls-2" width="50" height="50"/>
      <path class="cls-1" d="m25,2.68C12.67,2.68,2.68,12.67,2.68,25s9.99,22.32,22.32,22.32,22.32-9.99,22.32-22.32S37.33,2.68,25,2.68Zm-5.05,31.38h-4.48v-14.4h4.48v14.4Zm-2.27-16.17c-1.41,0-2.36-1-2.33-2.24-.03-1.3.91-2.27,2.36-2.27s2.36.97,2.39,2.27c0,1.24-.94,2.24-2.41,2.24Zm19.53,16.17h-4.48v-7.98c0-1.86-.65-3.12-2.27-3.12-1.24,0-1.97.85-2.27,1.68-.12.27-.18.71-.18,1.12v8.31h-4.48v-9.81c0-1.8-.06-3.33-.12-4.59h3.89l.21,1.97h.09c.59-.91,2.06-2.3,4.45-2.3,2.95,0,5.15,1.94,5.15,6.18v8.54Z"/>
    </g>
  </g>
</svg>