<?xml version="1.0" encoding="utf-8"?>
<!-- Generator: $$$/GeneralStr/196=Adobe Illustrator 27.6.0, SVG Export Plug-In . SVG Version: 6.00 Build 0)  -->
<svg version="1.1" id="Calque_2_00000141434397777558377190000005900749949997362595_"
	 xmlns="http://www.w3.org/2000/svg" xmlns:xlink="http://www.w3.org/1999/xlink" x="0px" y="0px" viewBox="0 0 50 50"
	 style="enable-background:new 0 0 50 50;" xml:space="preserve">
<style type="text/css">
	.st0{fill:none;}
	.st1{fill:#FF6666;}
</style>
<g id="Icones">
	<rect class="st0" width="50" height="50"/>
	<path class="st1" d="M42.9,8.4c-0.7-0.3-1.6-0.2-2.2,0.4l-1,0.9c-4-3.8-9.1-5.9-14.7-5.9c-9.7,0-18.2,6.6-20.5,16
		c-0.3,1.1,0.4,2.2,1.4,2.4c0.2,0,0.3,0.1,0.5,0.1c0.9,0,1.7-0.6,1.9-1.5c2-7.7,8.8-13,16.7-13c4.4,0,8.6,1.7,11.8,4.7l-1.2,1.1
		c-0.6,0.6-0.8,1.4-0.5,2.2s1,1.3,1.8,1.3l4.9,0.1l0,0c0.5,0,1-0.2,1.4-0.5c0.4-0.4,0.6-0.9,0.6-1.4l0.1-4.9
		C44.1,9.5,43.6,8.7,42.9,8.4L42.9,8.4z"/>
	<path class="st1" d="M44.1,27.8c-1.1-0.3-2.2,0.4-2.4,1.5c-1.9,7.6-8.8,12.9-16.7,12.9c-4.4,0-8.6-1.7-11.8-4.7l1.2-1.1
		c0.6-0.6,0.8-1.4,0.5-2.2s-1-1.3-1.8-1.3l-4.9-0.1c-0.5,0-1,0.2-1.4,0.5c-0.4,0.4-0.6,0.9-0.6,1.4l-0.2,5c0,0.8,0.4,1.5,1.2,1.9
		c0.3,0.1,0.5,0.2,0.8,0.2c0.5,0,1-0.2,1.4-0.5l1-1c4,3.8,9.1,5.9,14.7,5.9c9.7,0,18.2-6.6,20.5-16C45.8,29.2,45.2,28.1,44.1,27.8
		L44.1,27.8z"/>
</g>
</svg>
