<?xml version="1.0" encoding="UTF-8"?>
<svg id="Calque_2" data-name="Calque 2" xmlns="http://www.w3.org/2000/svg" viewBox="0 0 50 50">
  <defs>
    <style>
      .cls-1 {
        fill: #fff;
      }

      .cls-2 {
        fill: none;
      }
    </style>
  </defs>
  <g id="Calque_1-2" data-name="Calque 1">
    <g>
      <rect class="cls-2" width="50" height="50"/>
      <path class="cls-1" d="M16.16,16.29l3.04-3.15c.38-.39,.9-.61,1.44-.61h0c.55,0,1.07,.23,1.44,.62l2.98,3.14,3.04-3.15c.38-.39,.9-.61,1.44-.61h0c.55,0,1.07,.23,1.44,.62l2.98,3.14,2.53-2.62c-2.94-6.1-7.01-11.1-11.52-11.1s-8.52,4.92-11.45,10.97l2.62,2.76Z"/>
      <path class="cls-1" d="M11.96,33.96l5.16-5.35c.38-.39,.9-.61,1.44-.61h0c.55,0,1.07,.23,1.44,.62l5.06,5.34,5.16-5.35c.38-.39,.9-.61,1.44-.61h0c.55,0,1.07,.23,1.44,.62l5.06,5.34,3-3.11c-.07-3.47-1.16-8.4-2.97-13.18l-2.81,2.91c-.38,.39-.9,.61-1.44,.61h0c-.55,0-1.07-.23-1.44-.62l-2.98-3.14-3.04,3.15c-.38,.39-.89,.65-1.45,.61-.55,0-1.07-.23-1.44-.62l-2.98-3.14-3.04,3.15c-.38,.39-.9,.61-1.44,.61h0c-.55,0-1.07-.23-1.44-.62l-2.87-3.03c-1.8,4.73-2.9,9.61-3.01,13.11l3.14,3.32Z"/>
      <path class="cls-1" d="M38.16,38.85c-.55,0-1.07-.23-1.44-.62l-5.06-5.34-5.16,5.35c-.38,.39-.89,.64-1.45,.61-.55,0-1.07-.23-1.44-.62l-5.06-5.34-5.16,5.35c-.38,.39-.88,.64-1.45,.61-.55,0-1.07-.23-1.44-.62l-.2-.21c2.57,5.55,8.18,9.41,14.7,9.41s11.95-3.74,14.57-9.16c-.38,.37-.87,.6-1.41,.58Z"/>
    </g>
  </g>
</svg>