<?xml version="1.0" encoding="UTF-8"?>
<svg id="Calque_2" data-name="Calque 2" xmlns="http://www.w3.org/2000/svg" viewBox="0 0 50 50">
  <defs>
    <style>
      .cls-1 {
        fill: #f66;
      }

      .cls-2 {
        fill: none;
      }
    </style>
  </defs>
  <g id="Icones">
    <g>
      <rect class="cls-2" width="50" height="50"/>
      <path class="cls-1" d="m17.07,30.84h-5.57c-2.45,0-4.44-1.99-4.44-4.44v-14.89c0-2.45,1.99-4.44,4.44-4.44h14.89c2.45,0,4.44,1.99,4.44,4.44v5.57h4.17v-5.57c0-4.75-3.86-8.62-8.62-8.62h-14.89C6.75,2.89,2.89,6.75,2.89,11.51v14.89c0,4.75,3.86,8.62,8.62,8.62h5.57v-4.17Z"/>
      <path class="cls-1" d="m38.49,47.11h-14.89c-4.75,0-8.62-3.86-8.62-8.62v-14.89c0-4.75,3.86-8.62,8.62-8.62h14.89c4.75,0,8.62,3.86,8.62,8.62v14.89c0,4.75-3.86,8.62-8.62,8.62Zm-14.89-27.95c-2.45,0-4.44,1.99-4.44,4.44v14.89c0,2.45,1.99,4.44,4.44,4.44h14.89c2.45,0,4.44-1.99,4.44-4.44v-14.89c0-2.45-1.99-4.44-4.44-4.44h-14.89Z"/>
    </g>
  </g>
</svg>