<?xml version="1.0" encoding="utf-8"?>
<!-- Generator: $$$/GeneralStr/196=Adobe Illustrator 27.6.0, SVG Export Plug-In . SVG Version: 6.00 Build 0)  -->
<svg version="1.1" id="Calque_2_00000107572728540811201920000005334039310539264666_"
	 xmlns="http://www.w3.org/2000/svg" xmlns:xlink="http://www.w3.org/1999/xlink" x="0px" y="0px" viewBox="0 0 50 50"
	 style="enable-background:new 0 0 50 50;" xml:space="preserve">
<style type="text/css">
	.st0{fill:none;}
	.st1{fill:#342B33;}
</style>
<g id="Icones">
	<rect class="st0" width="50" height="50"/>
	<path class="st1" d="M41.8,26.7c-1-0.9-2.6-0.9-3.5,0.1L27.5,38.3V5.7c0-1.4-1.1-2.5-2.5-2.5s-2.5,1.1-2.5,2.5v32.5L11.7,26.8
		c-0.9-1-2.5-1-3.5-0.1c-1,1-1.1,2.5-0.1,3.5l15.1,16.1c0.5,0.5,1.1,0.8,1.8,0.8s1.4-0.3,1.8-0.8L42,30.2
		C42.9,29.2,42.9,27.6,41.8,26.7L41.8,26.7z"/>
</g>
</svg>
