<?xml version="1.0" encoding="UTF-8"?>
<svg id="Calque_2" data-name="Calque 2" xmlns="http://www.w3.org/2000/svg" viewBox="0 0 50 50">
  <defs>
    <style>
      .cls-1 {
        fill: #fff;
      }

      .cls-2 {
        fill: none;
      }
    </style>
  </defs>
  <g id="Icones">
    <g>
      <rect class="cls-2" width="50" height="50"/>
      <path class="cls-1" d="m30.58,42.18c-.05-1.21.08-2.42-.07-3.62-.07-.54-.18-1.09-.39-1.6-.12-.28-.9-1.15-.9-1.37,0-.33,1.81-.44,2.25-.55,1.14-.26,2.27-.64,3.29-1.22,3.43-1.95,4.66-5.85,4.56-9.61-.03-1.09-.21-2.19-.61-3.21-.37-.94-1.6-2.05-1.59-2.98,0-.5.3-1.08.35-1.6.06-.61.03-1.21-.07-1.81-.09-.55-.19-1.3-.46-1.8-.3-.56-.59-.55-1.24-.47-1.03.13-2.07.64-2.98,1.1-.5.25-.97.54-1.46.82-.68.4-.92.35-1.7.18-2.48-.56-5.05-.67-7.57-.3-1.05.15-2.19.71-3.16.21-1.06-.54-2.02-1.17-3.15-1.57-.51-.19-1.62-.69-2.2-.47-.65.25-.76,1.33-.87,1.91-.23,1.18-.16,2.28.11,3.44.16.67.19.65-.22,1.2-.34.46-.67.92-.93,1.43-.94,1.86-1.07,3.99-.83,6.03.54,4.62,3.27,7.79,7.85,8.76.53.11,2.15.11,2.08.59-.04.24-.63.86-.75,1.12-.21.45-.19,1.12-.46,1.51-.46.66-2.02.75-2.76.74-1.07-.01-2.06-.43-2.82-1.19-1.38-1.39-2.06-3.39-4.34-3.55-1.23-.09-1.22.55-.42,1.22.81.67,1.49,1.15,2.03,2.09,1.08,1.87,1.55,3.47,3.9,3.99,1.01.22,2.11.27,3.14.18.32-.03.93-.3,1.16-.02.21.24.04,1.49.04,1.8,0,.82.32,2.3-.27,2.98-.65.74-1.73.16-2.47-.13-1.84-.73-3.58-1.69-5.15-2.87-3.43-2.57-6.16-6.2-7.65-10.22-3.15-8.48-.67-18.37,6.03-24.42,6.74-6.09,16.99-7.57,25.13-3.44,7.64,3.87,12.5,11.7,12.5,20.28,0,8.46-5.23,16.53-12.88,20.1-1.08.5-4.03,2.13-4.05-.21,0-1.07,0-2.13,0-3.43Z"/>
    </g>
  </g>
</svg>