<?xml version="1.0" encoding="utf-8"?>
<!-- Generator: $$$/GeneralStr/196=Adobe Illustrator 27.6.0, SVG Export Plug-In . SVG Version: 6.00 Build 0)  -->
<svg version="1.1" id="Calque_2_00000122722507389059723680000011058340536420988046_"
	 xmlns="http://www.w3.org/2000/svg" xmlns:xlink="http://www.w3.org/1999/xlink" x="0px" y="0px" viewBox="0 0 50 50"
	 style="enable-background:new 0 0 50 50;" xml:space="preserve">
<style type="text/css">
	.st0{fill:none;}
	.st1{fill:#261624;}
</style>
<g id="Icones">
	<rect class="st0" width="50" height="50"/>
	<path class="st1" d="M25.7,7.6c6,0,10.8,4.8,10.8,10.8v13.2c0,6-4.9,10.8-10.8,10.8h-1.4c-6,0-10.8-4.8-10.8-10.8V18.4
		c0-6,4.9-10.8,10.8-10.8L25.7,7.6 M25.7,3.6h-1.4c-8.2,0-14.8,6.6-14.8,14.8v13.2c0,8.2,6.6,14.8,14.8,14.8h1.4
		c8.2,0,14.8-6.6,14.8-14.8V18.4C40.5,10.2,33.9,3.6,25.7,3.6L25.7,3.6z"/>
	<path class="st1" d="M25,23c-1.1,0-2-0.9-2-2v-7c0-1.1,0.9-2,2-2s2,0.9,2,2v7C27,22.1,26.1,23,25,23z"/>
</g>
</svg>
