<?xml version="1.0" encoding="utf-8"?>
<!-- Generator: $$$/GeneralStr/196=Adobe Illustrator 27.6.0, SVG Export Plug-In . SVG Version: 6.00 Build 0)  -->
<svg version="1.1" id="Calque_2_00000147940391857678701610000002257574265526453391_"
	 xmlns="http://www.w3.org/2000/svg" xmlns:xlink="http://www.w3.org/1999/xlink" x="0px" y="0px" viewBox="0 0 50 50"
	 style="enable-background:new 0 0 50 50;" xml:space="preserve">
<style type="text/css">
	.st0{fill:none;}
	.st1{fill:#261624;}
</style>
<g id="Icones">
	<rect class="st0" width="50" height="50"/>
	<path class="st1" d="M22.5,14.9c1-1.5,1.9-1.9,3.2-1.6c1.1,0.3,1.9,1.3,2,2.5c0,0.5,0,1,0,1.5c0.2,0.1,0.2-0.1,0.3-0.2
		c0.6-1,1.7-1.5,2.9-1.2c1,0.2,1.8,1.1,1.9,2.3c0.1,0.6-0.1,1.3,0.2,1.9c0.4-0.5,0.8-1,1.4-1.2c1.7-0.8,3.6,0.4,3.6,2.3
		c0,2,0,4.1,0,6.1c0,1.2-0.6,2.3-1,3.4c-0.4,1.2-0.9,2.3-1.3,3.5c-0.3,0.7-0.5,1.4-0.5,2.2c0,0.5-0.3,0.8-0.8,0.8
		c-4.6,0-9.2,0-13.9,0c-0.4,0-0.7-0.1-0.8-0.6c-0.3-1.6-1.3-2.7-2.3-3.9c-2.2-2.4-4.3-4.9-6.5-7.3c-1-1.1-0.9-2.6,0.1-3.6
		c1-1,2.5-1,3.6,0c0.8,0.7,1.5,1.5,2.2,2.2c0.1,0.1,0.3,0.2,0.4,0.2c0.2,0,0.2-0.3,0.2-0.5c0-0.5,0-1,0-1.5c0-5.3,0-10.5,0-15.8
		c0-2.3,1.9-3.3,3.5-2.7c1,0.4,1.7,1.3,1.7,2.3c0,2.8,0,5.6,0,8.4C22.5,14.6,22.5,14.7,22.5,14.9L22.5,14.9z"/>
	<path class="st1" d="M20.2,41.1h14.3c0.3,0,0.5,0.2,0.5,0.5V45c0,0.8-0.6,1.4-1.4,1.4H21c-0.8,0-1.4-0.6-1.4-1.4v-3.5
		C19.6,41.3,19.9,41.1,20.2,41.1L20.2,41.1z"/>
</g>
</svg>
