<?xml version="1.0" encoding="UTF-8"?>
<svg id="Calque_2" data-name="Calque 2" xmlns="http://www.w3.org/2000/svg" viewBox="0 0 50 50">
  <defs>
    <style>
      .cls-1 {
        fill: #fff;
      }

      .cls-2 {
        fill: none;
      }
    </style>
  </defs>
  <g id="Calque_1-2" data-name="Calque 1">
    <g>
      <rect class="cls-2" width="50" height="50"/>
      <path class="cls-1" d="M18.63,10.88v-1.42c0-1.02,.83-1.85,1.85-1.85h9.05c1.02,0,1.85,.83,1.85,1.85v1.42h3.6v-1.42c0-3.01-2.45-5.45-5.45-5.45h-9.05c-3.01,0-5.45,2.45-5.45,5.45v1.42h3.6Z"/>
      <path class="cls-1" d="M30.17,33.67c-.1,2.77-2.37,5-5.17,5s-5.07-2.23-5.17-5c-4.93-1.07-12.58-2.72-15.67-4.35v16.66H45.83V29.33c-3.09,1.63-10.74,3.27-15.67,4.34Z"/>
      <path class="cls-1" d="M27.48,33.49v-3.67h-4.95v3.67c0,1.37,1.11,2.48,2.48,2.48s2.48-1.11,2.48-2.48Z"/>
      <path class="cls-1" d="M1.75,14.48v3.25c0,3.85,1.5,5.35,4.61,8.12,1.11,.99,7.09,2.68,13.46,4.12v-2.85h10.35v2.85c6.37-1.43,12.35-3.13,13.46-4.12,3.12-2.77,4.61-4.27,4.61-8.12v-3.25H1.75Z"/>
    </g>
  </g>
</svg>