<?xml version="1.0" encoding="UTF-8"?>
<svg id="Calque_2" data-name="Calque 2" xmlns="http://www.w3.org/2000/svg" viewBox="0 0 50 50">
  <defs>
    <style>
      .cls-1 {
        fill: #fff;
      }

      .cls-2 {
        fill: none;
      }
    </style>
  </defs>
  <g id="Calque_1-2" data-name="Calque 1">
    <g>
      <rect class="cls-2" width="50" height="50"/>
      <rect class="cls-1" x="3.39" y="20.52" width="9.6" height="22.69" rx="1.13" ry="1.13"/>
      <path class="cls-1" d="M46.36,23.52c-.25-1.77-1.64-3.15-3.42-3.33-2.92-.3-6.06-.5-9.4-.55-1.42-.02-2.79-.01-4.12,.03,1.34-2.14,4.15-7.3,2.98-11.78-.15-.58-.82-3.13-2.67-3.64-1.24-.34-2.46,.38-2.81,.63-1.2,.84-1.91,2.19-2.21,3.62-1.07,5.15-5.36,10.51-6.44,11.8-.16,.2-.25,.43-.25,.69-.03,2.63-.17,17.64-.17,21.38,0,.52,.3,.99,.77,1.2,2.32,1.04,6.34,2.43,11.44,2.26,4.2-.14,7.53-1.29,9.67-2.24,.55-.25,1.02-.61,1.4-1.07,1.26-1.53,2.68-3.61,3.76-6.28,1.99-4.93,1.92-9.55,1.47-12.7Z"/>
    </g>
  </g>
</svg>