<?xml version="1.0" encoding="UTF-8"?>
<svg id="Calque_2" data-name="Calque 2" xmlns="http://www.w3.org/2000/svg" viewBox="0 0 50 50">
  <defs>
    <style>
      .cls-1 {
        fill: #fff;
      }

      .cls-2 {
        fill: none;
      }
    </style>
  </defs>
  <g id="Icones">
    <g>
      <rect class="cls-2" width="50" height="50"/>
      <path class="cls-1" d="m3.54,25c.05-2.9.08-5.79.16-8.69.07-2.5.52-4.92,1.85-7.09,1.74-2.84,4.3-4.58,7.56-5.14,1.93-.33,3.92-.45,5.88-.48,4.27-.06,8.55-.04,12.82,0,2.23.02,4.48.1,6.63.84,4.17,1.44,6.69,4.37,7.51,8.66.37,1.94.45,3.95.48,5.93.06,4.24.04,8.49,0,12.73-.02,2.23-.1,4.48-.84,6.63-1.43,4.17-4.36,6.7-8.64,7.53-1.94.37-3.95.45-5.93.48-4.26.06-8.52.04-12.77,0-2.23-.02-4.48-.1-6.63-.84-4.17-1.44-6.69-4.37-7.51-8.66-.37-1.94-.41-3.95-.49-5.93-.08-1.99-.06-5.96-.08-5.96Zm39.04-.34c0-1.69.05-3.38-.01-5.07-.06-1.83-.1-3.67-.38-5.47-.46-2.98-2.13-5.09-5.07-5.99-1.06-.33-2.21-.51-3.32-.54-3.91-.1-7.83-.16-11.74-.14-2.45,0-4.92.07-7.36.29-3.6.32-6.1,2.53-6.77,6.06-.36,1.92-.41,3.92-.45,5.88-.07,3.54-.05,7.08,0,10.62.02,1.67.1,3.35.27,5.01.36,3.6,2.51,6.09,6.06,6.77,1.89.37,3.85.42,5.79.45,3.62.07,7.23.05,10.85,0,1.62-.02,3.25-.11,4.87-.27,1.53-.15,2.96-.65,4.19-1.62,1.99-1.58,2.77-3.76,2.88-6.18.16-3.27.22-9.81.19-9.81Z"/>
      <path class="cls-1" d="m25.03,36.01c-6.14,0-11.01-4.89-11.01-11.05,0-6.11,4.92-10.97,11.1-10.96,6.06,0,10.92,4.94,10.92,11.1,0,6.03-4.93,10.92-11,10.92Zm.02-18.15c-3.92-.01-7.15,3.2-7.16,7.12-.02,3.91,3.2,7.15,7.12,7.16,3.91.02,7.15-3.2,7.16-7.12.01-3.91-3.2-7.15-7.12-7.16Z"/>
      <path class="cls-1" d="m39.03,13.56c0,1.44-1.17,2.61-2.58,2.59-1.41-.02-2.56-1.17-2.58-2.57-.02-1.42,1.15-2.59,2.58-2.59,1.46,0,2.58,1.11,2.58,2.57Z"/>
    </g>
  </g>
</svg>