<?xml version="1.0" encoding="UTF-8"?>
<svg id="Calque_2" data-name="Calque 2" xmlns="http://www.w3.org/2000/svg" viewBox="0 0 50 50">
  <defs>
    <style>
      .cls-1 {
        fill: #fff;
      }

      .cls-2 {
        fill: none;
      }
    </style>
  </defs>
  <g id="Calque_1-2" data-name="Calque 1">
    <g>
      <rect class="cls-2" width="50" height="50"/>
      <path class="cls-1" d="M31.22,32.6c3.87,1.33,7.74,3.6,11.57,6.77,1.94-2.52,3.24-5.54,3.69-8.84-5.55-2.43-10.89-.77-15.26,2.07Z"/>
      <path class="cls-1" d="M20.18,35.32c-4.8,.64-8.83,2.96-11.85,5.37,3.41,3.67,8.27,5.98,13.67,5.98h5.99c4.59,0,8.79-1.66,12.04-4.41-6.7-5.47-13.38-7.81-19.86-6.94Z"/>
      <path class="cls-1" d="M15.69,13.59c-1.51,0-2.75,1.23-2.75,2.75s1.23,2.75,2.75,2.75,2.75-1.23,2.75-2.75-1.23-2.75-2.75-2.75Z"/>
      <path class="cls-1" d="M28,3.32h-5.99C11.69,3.32,3.32,11.69,3.32,22v5.99c0,3.46,.96,6.69,2.6,9.47,3.45-2.73,8.07-5.34,13.68-6.11,2.17-.29,4.35-.28,6.53,.01,6.99-5.67,14.03-7.36,20.53-5.1v-4.28c0-10.32-8.36-18.68-18.68-18.68ZM15.69,23.09c-3.72,0-6.75-3.03-6.75-6.75s3.03-6.75,6.75-6.75,6.75,3.03,6.75,6.75-3.03,6.75-6.75,6.75Z"/>
    </g>
  </g>
</svg>