<?xml version="1.0" encoding="UTF-8"?><svg id="Calque_2" xmlns="http://www.w3.org/2000/svg" viewBox="0 0 50 50"><defs><style>.cls-1{fill:#fff;}.cls-2{fill:none;}</style></defs><g id="Icones"><rect class="cls-2" width="50" height="50"/><path class="cls-1" d="m39.54,48.01c-.52,0-1.02-.2-1.41-.58l-12.46-12.3c-.37-.37-.98-.37-1.35,0l-12.46,12.3c-.57.57-1.43.73-2.18.42-.74-.31-1.23-1.04-1.23-1.85V7.79c0-2.28,1.85-4.12,4.12-4.12h24.83c2.28,0,4.12,1.85,4.12,4.12v38.22c0,.81-.48,1.53-1.23,1.85-.25.1-.51.15-.77.15Zm-14.54-18.35c.51,0,1.02.19,1.4.58l11.13,10.99V7.79c0-.07-.05-.12-.12-.12H12.58c-.07,0-.12.05-.12.12v33.43l11.13-10.99c.39-.38.9-.58,1.4-.58Z"/></g></svg>