<?xml version="1.0" encoding="UTF-8"?>
<svg id="Calque_2" data-name="Calque 2" xmlns="http://www.w3.org/2000/svg" viewBox="0 0 100 100">
  <defs>
    <style>
      .cls-1 {
        fill: #fff;
      }

      .cls-2 {
        fill: none;
      }
    </style>
  </defs>
  <g id="Calque_1-2" data-name="Calque 1">
    <g>
      <path class="cls-1" d="M28.17,47.11l-11.31,6.52c-.29,.17-.29,.59,0,.75l9.4,5.42c.29,.17,.65-.04,.65-.38l1.91-11.87c.06-.36-.33-.63-.65-.45Z"/>
      <path class="cls-1" d="M36.47,41.62l-4.22,22.77c0,.82-.41,1.23-1.22,1.23h-4.41c-.11,0-.19-.03-.28-.04-.16,.07-.35,.06-.52-.08l-14.08-11.09c-.44-.34-.44-1.2,0-1.54l18.36-13.4,4.31-23.52L4.33,54.76l40.42,31.33,9.95-53.88-18.23,9.42Z"/>
      <polygon class="cls-1" points="59.33 12.07 45.79 1.58 44.39 3.39 38.71 34.43 56.93 25.01 59.33 12.07"/>
      <polygon class="cls-1" points="62.79 20.86 60.92 32.6 49.58 93.98 55.3 98.42 95.67 46.35 62.79 20.86"/>
      <rect class="cls-2" width="100" height="100"/>
    </g>
  </g>
</svg>