<?xml version="1.0" encoding="UTF-8"?><svg id="Emoji_enseignement_03" xmlns="http://www.w3.org/2000/svg" xmlns:xlink="http://www.w3.org/1999/xlink" viewBox="0 0 100 100"><defs><style>.cls-1{fill:#fff;}.cls-2{fill:#35220b;}.cls-3{fill:#896024;}.cls-4{fill:url(#Dégradé_sans_nom_4);}.cls-5{fill:#eb8f00;}.cls-6{fill:#ed7770;}</style><radialGradient id="Dégradé_sans_nom_4" cx="-1.5" cy="-.32" fx="-1.5" fy="-.32" r="7.28" gradientTransform="translate(59.06 47.99) scale(6.26 -6.26)" gradientUnits="userSpaceOnUse"><stop offset="0" stop-color="#fde030"/><stop offset=".5" stop-color="#fde030"/><stop offset=".92" stop-color="#f7c02b"/><stop offset="1" stop-color="#f4a223"/></radialGradient></defs><path class="cls-4" d="m49.7,94.68c6.14,0,11.99-1.01,17.57-3.03,5.57-2.02,10.49-4.87,14.75-8.57,4.55-4.09,8.03-8.94,10.45-14.54,2.42-5.6,3.62-11.78,3.62-18.55s-1.21-12.98-3.62-18.63c-2.42-5.66-5.9-10.5-10.45-14.54-4.26-3.75-9.17-6.61-14.71-8.57-5.54-1.96-11.41-2.94-17.61-2.94-4.49,0-8.95.57-13.39,1.71-4.43,1.14-8.63,2.86-12.58,5.16s-7.46,5.23-10.53,8.78-5.49,7.75-7.25,12.58c-1.76,4.83-2.64,10.32-2.64,16.46s.88,11.61,2.64,16.41c1.76,4.8,4.18,8.98,7.25,12.53,3.07,3.55,6.58,6.49,10.53,8.83s8.14,4.06,12.58,5.2c4.43,1.14,8.9,1.71,13.39,1.71Z"/><path class="cls-2" d="m80.4,56.91c.57,1.02.72,2.09.47,3.2-.26,1.11-.61,2.17-1.07,3.2-2.56,5.63-6.51,10.03-11.85,13.22s-11.48,4.8-18.42,4.86h-.17c-6.88-.06-12.99-1.68-18.33-4.86-5.34-3.18-9.32-7.59-11.94-13.22-.45-1.02-.8-2.09-1.02-3.2s-.09-2.17.43-3.2c.57-.97,1.36-1.63,2.39-2s2.13-.38,3.33-.04c3.58,1.14,7.57,2.02,11.98,2.64,4.41.63,8.83.94,13.26.94s8.93-.31,13.3-.94c4.38-.63,8.36-1.51,11.94-2.64,1.25-.34,2.39-.33,3.41.04s1.79,1.04,2.3,2Z"/><path class="cls-6" d="m62.24,78.14c.23.28.43.57.6.85-4.15,1.53-8.58,2.33-13.3,2.39h-.09c-4.95-.06-9.55-.94-13.81-2.64.17-.23.37-.48.6-.77.17-.11.33-.24.47-.38s.3-.27.47-.38c3.52-2.79,7.65-4.18,12.36-4.18,2.44,0,4.62.38,6.52,1.15s3.68,1.83,5.33,3.2c.11.11.26.24.43.38s.31.27.43.38Z"/><path class="cls-1" d="m74.69,54.86c1.25-.4,2.39-.4,3.41,0s1.79,1.08,2.3,2.05c.28.45.45.97.51,1.53-.34.17-.65.31-.94.43-4.72,2.27-9.56,3.94-14.54,4.99s-10.08,1.58-15.31,1.58-10.79-.57-15.99-1.71c-5.2-1.14-10.22-2.93-15.05-5.37-.34-.17-.65-.31-.94-.43.11-.4.23-.74.34-1.02.57-.97,1.36-1.63,2.39-2s2.13-.38,3.33-.04c3.58,1.14,7.57,2.02,11.98,2.64,4.41.63,8.83.94,13.26.94s8.93-.31,13.3-.94c4.38-.63,8.36-1.51,11.94-2.64Z"/><path class="cls-5" d="m48.85,59.72c-3.24.06-6.21-.13-8.91-.55s-5.67-.95-8.91-1.58c-1.71-.34-3.3-.71-4.78-1.11l-1.19-.34c-.4-.11-.71-.17-.94-.17-.63-.06-1.19.03-1.71.26s-1.05.61-1.62,1.15-.94,1.07-1.11,1.58c-.34.91-.41,1.95-.21,3.11s.43,2.13.68,2.9.33,1.04.21.81l-.81-1.11c-.54-.74-1.04-1.66-1.49-2.77s-.6-2.26-.43-3.45c.11-1.08.51-2.06,1.19-2.94s1.53-1.52,2.56-1.92c.91-.34,1.9-.43,2.98-.26.4,0,.88.11,1.45.34l1.11.34c1.53.45,3.07.85,4.6,1.19,3.13.74,6.01,1.31,8.66,1.71,2.64.4,5.56.63,8.74.68h.26c3.18-.06,6.15-.28,8.91-.68s5.7-.97,8.83-1.71c1.53-.34,3.04-.74,4.52-1.19l1.19-.34c.51-.23.97-.34,1.36-.34,1.08-.17,2.1-.09,3.07.26,1.02.4,1.89,1.05,2.6,1.96s1.12,1.9,1.24,2.98c.11,1.02.01,1.99-.3,2.9s-.64,1.76-.98,2.56l-.47.81-.47.81c-.17.28-.16.04.04-.72s.36-1.72.47-2.86,0-2.16-.34-3.07c-.17-.51-.55-1.04-1.15-1.58s-1.15-.92-1.66-1.15-1.08-.31-1.71-.26c-.23,0-.54.06-.94.17l-1.19.34c-1.53.4-3.16.77-4.86,1.11-3.18.63-6.21,1.15-9.08,1.58s-5.93.61-9.17.55h-.26Z"/><path class="cls-2" d="m89.95,40.71c.4-3.64.47-6.25.21-7.84s-.55-2.61-.9-3.07c-.17-.28-.65-.68-1.45-1.19s-2.25-.97-4.35-1.36-5.23-.51-9.38-.34c-4.09.11-7.16.45-9.21,1.02s-3.45,1.18-4.22,1.83-1.26,1.18-1.49,1.58c-.34.63-.58,1.76-.72,3.41s.16,4.15.9,7.5c.45,2.27,1.11,4.25,1.96,5.93s2.33,2.94,4.43,3.79c2.1.85,5.23,1.17,9.38.94,1.99-.11,3.82-.27,5.5-.47s3.16-.65,4.43-1.36,2.34-1.88,3.2-3.5,1.42-3.91,1.71-6.86Zm-49.29,1.53c.51-2.22.81-4.05.9-5.5s.04-2.6-.13-3.45l-.51-1.79-.09-.17c-.23-.4-.72-.92-1.49-1.58s-2.17-1.26-4.22-1.83-5.12-.91-9.21-1.02c-4.15-.17-7.28-.06-9.38.34s-3.55.85-4.35,1.36-1.28.91-1.45,1.19c-.34.45-.64,1.48-.9,3.07s-.18,4.21.21,7.84c.28,2.96.85,5.24,1.71,6.86s1.92,2.79,3.2,3.5,2.76,1.17,4.43,1.36,3.51.36,5.5.47c4.21.23,7.35-.09,9.42-.94,2.07-.85,3.54-2.12,4.39-3.79s1.51-3.65,1.96-5.93Zm58.67-15.95l.17,5.8-1.32.55c-.88.37-1.69,1.01-2.43,1.92-.4.45-.74,1.35-1.02,2.69s-.6,2.86-.94,4.56c-.34,1.71-.71,3.41-1.11,5.12s-.91,3.16-1.53,4.35c-.74,1.48-1.96,2.61-3.67,3.41s-3.6,1.36-5.67,1.71-4.09.53-6.05.55c-1.96.03-3.57,0-4.82-.09l-1.88-.13h-1.19c-.8,0-1.8-.16-3.03-.47s-2.46-.87-3.71-1.66-2.33-1.99-3.24-3.58c-1.08-1.82-1.95-3.78-2.6-5.88s-1.15-3.99-1.49-5.67-.54-2.83-.6-3.45c-.4-.23-.87-.44-1.41-.64s-1.18-.3-1.92-.3c-.63,0-1.19.07-1.71.21s-.94.33-1.28.55c-.06.51-.26,1.62-.6,3.33s-.84,3.64-1.49,5.8-1.55,4.18-2.69,6.05c-.91,1.59-1.99,2.8-3.24,3.62s-2.49,1.38-3.71,1.66c-1.22.28-2.23.44-3.03.47l-1.19.04-1.88.09c-1.25.06-2.86.07-4.82.04-1.96-.03-3.98-.21-6.05-.55s-3.97-.91-5.67-1.71-2.93-1.93-3.67-3.41c-.63-1.19-1.14-2.64-1.53-4.35s-.75-3.41-1.07-5.12-.63-3.23-.94-4.56-.64-2.23-.98-2.69c-.74-.91-1.56-1.55-2.47-1.92l-1.36-.55.17-5.8.38-.21c.26-.14.9-.36,1.92-.64s2.61-.6,4.78-.94,5.17-.68,9.04-1.02c5-.45,9.27-.53,12.79-.21s6.41.82,8.66,1.53,3.97,1.42,5.16,2.13,1.99,1.24,2.39,1.58c.63-.06,1.29-.1,2-.13s1.26-.04,1.66-.04h.09c.8,0,1.56.01,2.3.04s1.48.07,2.22.13h.17c.34-.28,1.09-.8,2.26-1.53s2.87-1.46,5.12-2.17,5.14-1.22,8.7-1.53,7.86-.24,12.92.21c3.87.34,6.88.68,9.04,1.02s3.75.65,4.78.94,1.66.5,1.92.64l.38.21Z"/><path class="cls-2" d="m70.8,33.24c1.65,0,3.13.67,4.43,2s1.96,3.17,1.96,5.5-.65,4.16-1.96,5.5-2.79,2-4.43,2-3.13-.67-4.43-2-1.96-3.17-1.96-5.5.65-4.16,1.96-5.5,2.79-2,4.43-2Z"/><path class="cls-3" d="m70.48,36.37c.41.28.65.7.75,1.25.09.55-.06,1.11-.46,1.69-.4.57-.87.91-1.42,1.02-.55.11-1.03.02-1.43-.27-.41-.28-.65-.7-.75-1.25-.09-.55.06-1.11.46-1.69s.87-.91,1.42-1.02c.55-.11,1.03-.02,1.43.27Z"/><path class="cls-2" d="m70.8,33.24c1.65,0,3.13.67,4.43,2s1.96,3.17,1.96,5.5-.65,4.16-1.96,5.5-2.79,2-4.43,2-3.13-.67-4.43-2-1.96-3.17-1.96-5.5.65-4.16,1.96-5.5,2.79-2,4.43-2Z"/><path class="cls-3" d="m70.48,36.37c.41.28.65.7.75,1.25.09.55-.06,1.11-.46,1.69-.4.57-.87.91-1.42,1.02-.55.11-1.03.02-1.43-.27-.41-.28-.65-.7-.75-1.25-.09-.55.06-1.11.46-1.69s.87-.91,1.42-1.02c.55-.11,1.03-.02,1.43.27Z"/><path class="cls-2" d="m28.95,33.24c1.65,0,3.13.67,4.43,2s1.96,3.17,1.96,5.5-.65,4.16-1.96,5.5-2.79,2-4.43,2-3.13-.67-4.43-2-1.96-3.17-1.96-5.5.65-4.16,1.96-5.5,2.79-2,4.43-2Z"/><path class="cls-3" d="m28.63,36.37c.41.28.65.7.75,1.25.09.55-.06,1.12-.46,1.69-.4.57-.87.91-1.42,1.02-.55.11-1.03.02-1.43-.27-.41-.28-.65-.7-.75-1.25-.09-.55.06-1.11.46-1.69.4-.57.87-.91,1.42-1.02.55-.11,1.03-.02,1.43.27Z"/></svg>