<?xml version="1.0" encoding="UTF-8"?><svg id="Emoji_enseignement_02" xmlns="http://www.w3.org/2000/svg" viewBox="0 0 100 100"><defs><style>.cls-1{fill:#ffefab;}.cls-2{fill:#d1701c;}.cls-3{fill:#fffcfd;}.cls-4{fill:#865c50;}.cls-5{fill:#fcc219;}.cls-6{fill:#fec417;}.cls-7{fill:#ffa828;}</style></defs><path class="cls-6" d="m71.62,43.97c0,.06.61-.29,1.84-1.05s2.76-1.72,4.59-2.89,3.66-2.33,5.47-3.5,3.34-2.14,4.59-2.93l1.88-1.18,4.37-7.17-1.84-8.66-8.66-.26-.79,1.27c-.52.85-1.14,1.84-1.84,2.97s-1.31,2.16-1.84,3.06-.79,1.39-.79,1.44-.23.22-.7.48-.95.52-1.44.79-.74.42-.74.48l-.39,1.71c-.26,1.14-.6,2.55-1.01,4.24-.41,1.69-.82,3.38-1.22,5.07s-.76,3.12-1.05,4.29-.44,1.78-.44,1.84ZM8.55,31.11l18.72,11.63-4.37-16.01-.52-1.05c-.35-.7-.74-1.52-1.18-2.45s-.85-1.76-1.22-2.49-.6-1.15-.66-1.27c-.06-.06-.38-.32-.96-.79s-1.24-.98-1.97-1.53-1.37-1.05-1.92-1.49l-.83-.66-4.37,1.31-3.85,5.07,3.15,9.71Zm68.93,15.13c-.93.76-1.69,1.52-2.27,2.27s-.79,1.55-.61,2.36.5,1.25.96,1.31.82-.03,1.05-.26c.17-.12.45-.25.83-.39s.74-.12,1.09.09.58.77.7,1.71c.12,1.4-.39,2.49-1.53,3.28s-2.52.77-4.16-.04c-1.11-.52-1.9-1.28-2.36-2.27s-.73-1.9-.79-2.71-.06-1.31,0-1.49c.12-.17-.06-.48-.52-.92l-.7-.66-14,8.57v7.35l.31,1.88c.2,1.25.69,2.61,1.44,4.07.7,1.34,1.49,2.62,2.36,3.85s1.63,2.2,2.27,2.93l.96,1.09.79,3.06-26.94.61.09-3.15.87-.96c.58-.64,1.27-1.49,2.06-2.54s1.5-2.16,2.14-3.32c.93-1.69,1.53-3.34,1.79-4.94l.39-2.41.26-5.16-7.26-6.04-6.65-4.55-.61,4.2-.39,1.05c-.26.7-.73,1.37-1.4,2.01s-1.68.9-3.02.79c-1.4-.17-2.42-.67-3.06-1.49s-.93-1.69-.87-2.62.44-1.57,1.14-1.92c.7-.41,1.22-.32,1.57.26s.61.9.79.96c.12.06.34-.07.66-.39s.48-.95.48-1.88c0-.99-.6-2.01-1.79-3.06s-2.55-2.13-4.07-3.24c-.99-.76-2.32-1.63-3.98-2.62s-3.47-2.2-5.42-3.63-3.86-3.16-5.73-5.2c-1.05-1.17-1.94-2.67-2.67-4.51s-1.12-3.79-1.18-5.86.36-4.08,1.27-6.04,2.46-3.63,4.68-5.03c2.16-1.4,4.2-2.13,6.12-2.19s3.62.19,5.07.74,2.61,1.15,3.46,1.79l1.27.96.31-1.09c.2-.73.71-1.59,1.53-2.58s2.13-1.95,3.94-2.89c3.03-1.46,6.27-2.46,9.71-3.02s7.03-.86,10.76-.92c3.85-.06,7.76.23,11.72.87s7.61,1.72,10.93,3.24c1.75.82,3.05,1.75,3.89,2.8s1.41,1.95,1.71,2.71l.44,1.14,1.44-.96c.96-.64,2.27-1.24,3.94-1.79s3.56-.73,5.69-.52,4.3,1.18,6.52,2.93c1.75,1.4,2.97,3.06,3.67,4.99s1.01,3.91.92,5.95-.48,3.95-1.18,5.73-1.6,3.19-2.71,4.24c-1.46,1.4-3.12,2.81-4.99,4.24s-3.72,2.77-5.55,4.02-3.44,2.35-4.81,3.28-2.29,1.57-2.76,1.92Z"/><path class="cls-7" d="m91.83,27.7c1.05-1.69,1.53-3.4,1.44-5.12s-.8-3.05-2.14-3.98c-1.52-1.05-2.86-1.55-4.02-1.49s-2.17.44-3.02,1.14-1.5,1.49-1.97,2.36c-.52.82-.93,1.91-1.22,3.28s-.7,2.35-1.22,2.93c-.52.52-1.11.76-1.75.7l-.96-.09-.17,2.14c-.12,1.43-.38,3.11-.79,5.03-.12.76-.29,1.47-.52,2.14s-.44,1.3-.61,1.88c-.29.93-.58,1.78-.87,2.54.47-.35,1.27-.9,2.41-1.66s2.38-1.6,3.72-2.54,2.6-1.78,3.76-2.54c1.28-.87,2.71-1.87,4.29-2.97s2.8-2.36,3.67-3.76Zm-76.54,5.86c2.33,1.69,4.52,3.24,6.56,4.64s3.27,2.25,3.67,2.54c-.29-.76-.55-1.5-.79-2.23s-.44-1.44-.61-2.14c-.17-.64-.35-1.34-.52-2.1l-.04-.04-.04-.04c-.12-.64-.23-1.25-.35-1.84s-.2-1.11-.26-1.57c-.06,0-.09-.01-.09-.04v-.22c-.12-.64-.19-1.14-.22-1.49l-.04-.52-.87-.22c-.58-.15-1.02-.54-1.31-1.18-.12-.29-.28-1.05-.48-2.27s-.58-2.52-1.14-3.89-1.41-2.51-2.58-3.41-2.8-1.18-4.9-.83c-1.4.23-2.49.87-3.28,1.92s-1.24,2.3-1.36,3.76.2,2.92.96,4.37c.76,1.57,1.95,2.92,3.59,4.02s3,2.04,4.11,2.8Zm80.92-10.85c.12,1.92-.38,3.76-1.49,5.51s-2.54,3.37-4.29,4.85-3.53,2.83-5.34,4.02-3.32,2.2-4.55,3.02c-2.45,1.57-4.46,2.99-6.04,4.24s-2.54,3.13-2.89,5.64c-.23,1.63-.1,2.96.39,3.98s1.02,1.78,1.57,2.27l.83.74-1.44-.39c-.96-.26-1.82-1.04-2.58-2.32-.47-.76-.8-1.53-1.01-2.32s-.31-1.36-.31-1.71c-1.11,1.52-2.42,2.93-3.94,4.24s-3.24,2.43-5.16,3.37c-1.46.7-2.95,1.22-4.46,1.57s-3.12.55-4.81.61h-1.31c-1.46,0-2.74-.07-3.85-.22s-2.13-.39-3.06-.74c-2.51-.76-4.71-1.87-6.6-3.32-1.9-1.46-3.57-3.12-5.03-4.99,0,.35-.04.8-.13,1.36s-.25,1.06-.48,1.53c-.58,1.28-1.34,2.1-2.27,2.45l-1.4.52.79-.96c.52-.64.98-1.57,1.36-2.8s.31-2.68-.22-4.37c-.41-1.4-1.47-2.84-3.19-4.33s-3.78-3.05-6.17-4.68-4.84-3.32-7.35-5.07c-3.73-2.68-6.11-5.41-7.13-8.18s-.92-5.35.31-7.74c.76-1.63,1.85-2.8,3.28-3.5s2.93-1.04,4.51-1.01,3.03.36,4.37,1.01c1.52.76,2.57,1.78,3.15,3.06s.99,2.45,1.22,3.5.55,1.6.96,1.66c.29,0,.54-.35.74-1.05s.35-1.55.44-2.54.13-1.95.13-2.89-.03-1.6-.09-2.01c-.12-.82-.36-1.49-.74-2.01l-.57-.79.04-.44c.03-.29.07-.52.13-.7,0-.12.07-.29.22-.52l.22-.35.35.7c.23.47.61.76,1.14.87.47.12.85.09,1.14-.09l.44-.26.26.96-.17,2.01-.26,4.64.61,12.95,4.29,12.68,5.86,5.51,1.01.83c.67.55,1.59,1.18,2.76,1.88s2.51,1.31,4.02,1.84,3.12.76,4.81.7c2.22,0,3.95-.19,5.2-.57s2.22-.8,2.89-1.27,1.3-.82,1.88-1.05c.58-.29,1.31-.77,2.19-1.44s1.63-1.3,2.27-1.88l.96-.87.66-1.14c.44-.76.96-1.68,1.57-2.76s1.24-2.19,1.88-3.32,1.18-2.1,1.62-2.89.69-1.24.74-1.36c.06-.06.15-.85.26-2.36s.26-3.35.44-5.51.35-4.3.52-6.43c.17-2.13.32-3.92.44-5.38l.17-2.19-1.05-4.29.7.31c.47.2.96.19,1.49-.04.47-.23.71-.71.74-1.44l.04-1.09.57.61c.38.41.71.79,1.01,1.14.29.41.5.89.61,1.44l.17.83-.66,1.09c-.44.73-.66,2.17-.66,4.33-.06.7-.07,1.62-.04,2.76s.04,2.17.04,3.11v1.4h.44c.29,0,.61-.06.96-.17.29-.12.58-.55.87-1.31s.58-1.72.87-2.89c.7-2.97,2.62-5.02,5.77-6.12.82-.29,1.82-.38,3.02-.26s2.41.5,3.63,1.14,2.27,1.56,3.15,2.76,1.4,2.76,1.57,4.68Z"/><path class="cls-7" d="m47.48,62.69c0-.41-.03-.31-.09.31s-.15,1.4-.26,2.36-.2,1.82-.26,2.58l-.09,1.14-.39,1.84c-.26,1.22-.51,2.62-.74,4.2s-.35,2.92-.35,4.02c0,.87.47,1.39,1.4,1.53s2.03.12,3.28-.09,2.35-.45,3.28-.74l1.4-.44-.57-2.58c-.38-1.72-.74-3.51-1.09-5.38-.29-1.28-.5-2.61-.61-3.98s-.19-2.52-.22-3.46l-.04-1.4-4.64.09Z"/><path class="cls-7" d="m39.69,10.03l-.79,29.57,7.96,16.01,4.64.52.44-.7c.29-.47.64-1.17,1.05-2.1.35-.64.87-1.78,1.57-3.41s1.41-3.67,2.14-6.12,1.24-5.16,1.53-8.14c.23-2.27.42-4.84.57-7.7s.26-5.61.35-8.27.15-4.84.17-6.56l.04-2.58-1.44-.22c-.96-.15-2.19-.31-3.67-.48s-3.02-.26-4.59-.26c-1.63-.06-3.21-.04-4.72.04s-2.77.17-3.76.26l-1.49.13Z"/><path class="cls-1" d="m33.48,12.48c.12-.12.06,1.22-.17,4.02s-.32,6.41-.26,10.85c.06,2.22.44,4.62,1.14,7.22s1.52,5.09,2.45,7.48,1.82,4.45,2.67,6.17,1.44,2.78,1.79,3.19c.87,1.11,1.84,1.94,2.89,2.49s1.97.93,2.76,1.14l1.18.31-.57-1.22c-.38-.82-.83-1.78-1.36-2.89s-.96-2.13-1.31-3.06c-.29-.7-.64-1.82-1.05-3.37s-.82-3.29-1.22-5.25-.74-3.92-1.01-5.9-.42-3.79-.48-5.42c-.06-1.87-.1-3.86-.13-5.99s-.04-4.11-.04-5.95v-6.25l-1.14.17c-.76.12-1.6.35-2.54.7-1.05.41-1.91.77-2.58,1.09l-1.01.48Z"/><path class="cls-3" d="m31.12,13.7l.7-.44c.47-.29.79-.5.96-.61s.54-.29,1.09-.52l.83-.35.04,1.31c.03.87.06,1.97.09,3.28s.06,2.61.09,3.89.07,2.33.13,3.15c.06,1.63.28,3.92.66,6.87s.92,5.79,1.62,8.53c.41,1.87.96,3.78,1.66,5.73s1.27,3.59,1.71,4.9.57,1.97.39,1.97c-.58,0-1.66-.99-3.24-2.97-.87-1.17-1.91-3.16-3.11-5.99s-2.23-6.37-3.11-10.63c-.64-2.86-.98-5.64-1.01-8.35s.03-4.99.17-6.82.25-2.81.31-2.93Z"/><path class="cls-1" d="m41.62,78.78l5.42.79.35-2.36c.23-1.57.41-3.29.52-5.16.06-1.28.12-2.65.17-4.11s.12-2.7.17-3.72l.09-1.53-2.01-.09-.26,2.19c-.17,1.46-.41,3.15-.7,5.07-.23,1.28-.66,2.61-1.27,3.98s-1.18,2.54-1.71,3.5l-.79,1.44Z"/><path class="cls-2" d="m43.98,59.45l-.17,5.16,1.75-.52c1.17-.35,2.42-.5,3.76-.44,1.63,0,3.03.15,4.2.44l1.75.44-.09-4.99-1.36-.74c-.9-.5-2.38-.74-4.42-.74s-3.38.23-4.2.7l-1.22.7Z"/><path class="cls-2" d="m26.57,10.46c-.23.23-.42.58-.57,1.05s-.1.82.13,1.05c.17.29.47.44.87.44s.73-.06.96-.17,1.09-.57,2.58-1.36,3.7-1.57,6.65-2.36,6.78-1.24,11.5-1.36c4.9-.17,8.89.09,11.98.79s5.44,1.44,7.04,2.23,2.61,1.27,3.02,1.44c.58.29,1.01.39,1.27.31s.45-.28.57-.57.09-.69-.09-1.18-.38-.83-.61-1.01c-.12-.06-.95-.51-2.49-1.36s-3.98-1.65-7.3-2.41-7.73-1.14-13.21-1.14c-5.07.06-9.21.51-12.42,1.36s-5.61,1.72-7.22,2.62-2.49,1.44-2.67,1.62Z"/><path class="cls-2" d="m72.59,13.88c.52,0,.9.73,1.14,2.19s.35,3.25.35,5.38-.07,4.26-.22,6.39-.31,3.86-.48,5.2c-.47,2.62-1.18,4.99-2.14,7.09s-2.23,4.26-3.81,6.47c-1.11,1.63-2.35,2.9-3.72,3.81s-2.57,1.52-3.59,1.84-1.56.39-1.62.22c-.06-.23.41-.77,1.4-1.62s2.25-2.22,3.76-4.11,2.97-4.53,4.37-7.92c.99-2.39,1.71-5.02,2.14-7.87.44-2.86.74-5.57.92-8.14.17-2.57.35-4.68.52-6.34s.5-2.52.96-2.58Z"/><path class="cls-2" d="m26.14,15.63c.35.06.55.63.61,1.71s.06,2.39,0,3.94-.09,3.02-.09,4.42c.06,3.09.48,5.96,1.27,8.62s1.65,4.88,2.58,6.69c1.05,2.1,2.17,3.85,3.37,5.25s2.17,2.49,2.93,3.28.99,1.33.7,1.62-.98,0-2.06-.87-2.26-2.01-3.54-3.41-2.36-2.8-3.24-4.2c-.7-1.05-1.33-2.36-1.88-3.94s-1.02-3.13-1.4-4.68-.66-2.86-.83-3.94-.26-1.65-.26-1.71c0-.17.15-.36.44-.57s.5-.63.61-1.27c.23-.87.38-1.91.44-3.11s.09-2.39.09-3.59.01-2.2.04-3.02.1-1.22.22-1.22Z"/><path class="cls-4" d="m69,90.07h4.81v8.49H26.05v-8.49h5.34v-2.71c0-1.28.01-2.61.04-3.98s.03-2.55,0-3.54l-.04-1.49h37.62v11.72Z"/><path class="cls-5" d="m43.46,84.47h6.25c1.66,0,3.18.01,4.55.04s2.17.04,2.41.04c.41,0,.86.06,1.36.17s.74.52.74,1.22c0,.41.01,1.2.04,2.36s.01,1.92-.04,2.27c0,.41-.1.76-.31,1.05s-.54.44-1.01.44h-14.26c-1.22,0-1.84-.41-1.84-1.22v-5.07c.06-.58.31-.95.74-1.09s.89-.22,1.36-.22Z"/></svg>