<?xml version="1.0" encoding="UTF-8"?><svg id="Emoji_resultat_02" xmlns="http://www.w3.org/2000/svg" xmlns:xlink="http://www.w3.org/1999/xlink" viewBox="0 0 100 100"><defs><style>.cls-1{fill:url(#Dégradé_sans_nom_2);}.cls-2{fill:#fafafa;}.cls-3{fill:url(#Dégradé_sans_nom_3);}.cls-4{fill:#eee;}.cls-5{fill:#b0bec5;}</style><linearGradient id="Dégradé_sans_nom_2" x1="-1.13" y1="-8.61" x2="6.41" y2="-8.61" gradientTransform="translate(49.21 40.07) rotate(90) scale(3.89 -3.89)" gradientUnits="userSpaceOnUse"><stop offset="0" stop-color="#424242"/><stop offset="1" stop-color="#212121"/></linearGradient><linearGradient id="Dégradé_sans_nom_3" x1="-1.13" y1="2.4" x2="6.41" y2="2.4" gradientTransform="translate(55.76 40.07) rotate(90) scale(3.89 -3.89)" gradientUnits="userSpaceOnUse"><stop offset="0" stop-color="#424242"/><stop offset="1" stop-color="#212121"/></linearGradient></defs><path class="cls-2" d="m25.32,85.24c3.18,0,6.17-.91,8.96-2.74s5.25-4.36,7.37-7.59,3.78-6.99,4.99-11.26,1.81-8.82,1.81-13.64-.6-9.38-1.81-13.64-2.87-8.02-4.99-11.26-4.58-5.77-7.37-7.59-5.78-2.74-8.96-2.74-6.17.91-8.96,2.74-5.27,4.36-7.42,7.59-3.81,6.99-4.99,11.26-1.77,8.82-1.77,13.64.59,9.38,1.77,13.64,2.83,8.02,4.95,11.26,4.59,5.77,7.42,7.59,5.83,2.74,9.01,2.74Z"/><path class="cls-5" d="m25.32,13.17h0c3.41,0,6.62.96,9.63,2.87s5.64,4.55,7.9,7.9,4.05,7.27,5.34,11.75,1.94,9.24,1.94,14.31-.65,9.83-1.94,14.31-3.08,8.39-5.34,11.75-4.9,5.99-7.9,7.9-6.21,2.87-9.63,2.87-6.62-.96-9.63-2.87-5.65-4.55-7.95-7.9-4.08-7.27-5.34-11.75-1.9-9.24-1.9-14.31.63-9.83,1.9-14.31,3.05-8.39,5.34-11.75,4.95-5.99,7.95-7.9,6.21-2.87,9.63-2.87Zm0,3.27c-2.77,0-5.42.81-7.95,2.43s-4.83,3.93-6.89,6.93c-2.12,3.18-3.77,6.86-4.95,11.04s-1.77,8.57-1.77,13.16.57,8.98,1.72,13.16,2.81,7.86,4.99,11.04c2.06,3,4.36,5.31,6.89,6.93s5.18,2.43,7.95,2.43,5.34-.81,7.9-2.43,4.84-3.93,6.84-6.93c2.18-3.18,3.84-6.86,4.99-11.04s1.72-8.57,1.72-13.16-.57-8.98-1.72-13.16-2.81-7.86-4.99-11.04c-2-3-4.28-5.31-6.84-6.93s-5.2-2.43-7.9-2.43Z"/><path class="cls-1" d="m18.25,46.56c.94.88,2.13,1.28,3.58,1.19s2.84-.63,4.19-1.63c.29,1.35.44,2.77.44,4.24,0,2.65-.49,5.09-1.46,7.33s-2.28,4-3.93,5.3-3.44,1.94-5.39,1.94-3.81-.65-5.43-1.94-2.91-3.06-3.89-5.3-1.46-4.68-1.46-7.33.49-5.18,1.46-7.42,2.27-4,3.89-5.3,3.43-1.94,5.43-1.94c1.41,0,2.8.35,4.15,1.06-.18.12-.32.26-.44.44-1.47,1.53-2.31,3.21-2.52,5.03s.25,3.27,1.37,4.33Z"/><path class="cls-4" d="m99.5,50c0-5.06-.63-9.83-1.9-14.31-1.27-4.47-3.05-8.39-5.34-11.75s-4.95-5.99-7.95-7.9-6.21-2.87-9.63-2.87-6.62.96-9.63,2.87-5.64,4.55-7.9,7.9-4.05,7.27-5.34,11.75-1.94,9.24-1.94,14.31.65,9.83,1.94,14.31,3.08,8.39,5.34,11.75,4.9,5.99,7.9,7.9,6.21,2.87,9.63,2.87,6.62-.96,9.63-2.87,5.65-4.55,7.95-7.9,4.08-7.27,5.34-11.75c1.27-4.47,1.9-9.24,1.9-14.31Z"/><path class="cls-2" d="m74.73,85.24c3.18,0,6.17-.91,8.96-2.74s5.25-4.36,7.37-7.59,3.78-6.99,4.99-11.26,1.81-8.82,1.81-13.64-.6-9.38-1.81-13.64-2.87-8.02-4.99-11.26-4.58-5.77-7.37-7.59-5.78-2.74-8.96-2.74-6.17.91-8.96,2.74-5.27,4.36-7.42,7.59-3.81,6.99-4.99,11.26c-1.18,4.27-1.77,8.82-1.77,13.64s.59,9.38,1.77,13.64c1.18,4.27,2.83,8.02,4.95,11.26s4.59,5.77,7.42,7.59,5.83,2.74,9.01,2.74Z"/><path class="cls-5" d="m74.68,13.17h0c3.41,0,6.62.96,9.63,2.87s5.65,4.55,7.95,7.9,4.08,7.27,5.34,11.75c1.27,4.47,1.9,9.24,1.9,14.31s-.63,9.83-1.9,14.31c-1.27,4.47-3.05,8.39-5.34,11.75s-4.95,5.99-7.95,7.9-6.21,2.87-9.63,2.87-6.62-.96-9.63-2.87-5.64-4.55-7.9-7.9-4.05-7.27-5.34-11.75-1.94-9.24-1.94-14.31.65-9.83,1.94-14.31,3.08-8.39,5.34-11.75,4.9-5.99,7.9-7.9,6.21-2.87,9.63-2.87Zm0,3.27c-2.71,0-5.34.81-7.9,2.43s-4.84,3.93-6.84,6.93c-2.18,3.18-3.84,6.86-4.99,11.04s-1.72,8.57-1.72,13.16.57,8.98,1.72,13.16,2.81,7.86,4.99,11.04c2,3,4.28,5.31,6.84,6.93s5.2,2.43,7.9,2.43,5.42-.81,7.95-2.43,4.83-3.93,6.89-6.93c2.12-3.18,3.77-6.86,4.95-11.04s1.77-8.57,1.77-13.16-.59-8.98-1.77-13.16-2.83-7.86-4.95-11.04c-2.06-3-4.36-5.31-6.89-6.93s-5.18-2.43-7.95-2.43Z"/><path class="cls-3" d="m67.66,46.56c.94.88,2.13,1.28,3.58,1.19s2.84-.63,4.19-1.63c.29,1.35.44,2.77.44,4.24,0,2.65-.49,5.09-1.46,7.33s-2.28,4-3.93,5.3-3.44,1.94-5.39,1.94-3.81-.65-5.43-1.94-2.91-3.06-3.89-5.3-1.46-4.68-1.46-7.33.49-5.18,1.46-7.42,2.27-4,3.89-5.3,3.43-1.94,5.43-1.94c1.41,0,2.8.35,4.15,1.06-.18.12-.32.26-.44.44-1.47,1.53-2.31,3.21-2.52,5.03s.25,3.27,1.37,4.33Z"/></svg>