<?xml version="1.0" encoding="UTF-8"?><svg id="Emoji_resultat_03" xmlns="http://www.w3.org/2000/svg" viewBox="0 0 100 100"><defs><style>.cls-1{fill:#fff;}.cls-2{fill:#ed6a65;}.cls-3{fill:#ca2c31;}.cls-4{fill:#8dafbf;}.cls-5{fill:none;isolation:isolate;opacity:.5;}.cls-6{fill:#f7d74d;}.cls-7{fill:#3f545f;}.cls-8{fill:#e1e1e1;}.cls-9{fill:#6896a5;}.cls-10{fill:#a02422;}.cls-11{fill:#b3e1ee;}.cls-12{fill:#d83f22;}.cls-13{fill:#fbf0b4;}.cls-14{fill:#858585;}.cls-15{fill:#a02524;}.cls-16{fill:#437687;}</style></defs><polygon class="cls-3" points=".68 55.65 1.82 58.97 3.75 59.85 34.64 50.39 36.92 38.4 14.07 42.52 .68 55.65"/><polygon class="cls-10" points="16.44 45.84 32.11 43.13 28.78 52.06 28.78 56 12.59 64.31 1.82 59.06 16.44 45.84"/><path class="cls-10" d="m50.84,69.13l10.85-5.43-2.98,22.58-11.82,13.22-.88-.09c-.58-.06-1.17-.1-1.75-.13s-.9-.04-.96-.04-.31-.44-.74-1.31-.95-1.95-1.53-3.24-1.18-2.57-1.79-3.85-1.11-2.36-1.49-3.24l-.57-1.31,6.65-14.09,7-3.06Z"/><path class="cls-3" d="m43.92,79.54l-5.43,9.8.53,1.05c.35.7.93,1.95,1.75,3.76.99,2.22,1.66,3.62,2.01,4.2l.53.88,12.34-14.09,1.23-11.03-.96.57c-.64.38-1.44.82-2.41,1.31s-1.91.98-2.84,1.44-1.93.86-2.98,1.18-1.94.55-2.67.7l-1.09.22Z"/><path class="cls-6" d="m23.53,63l13.39,8.58.44,1.18c.29.79.45,1.85.48,3.19s-.31,2.92-1.01,4.73-2.04,3.73-4.03,5.78c-1.81,1.87-3.68,3.31-5.6,4.33s-3.72,1.72-5.38,2.1-3.02.54-4.07.48-1.58-.2-1.58-.44.1-.45.31-.66.36-.39.48-.57c.29-.41.48-.71.57-.92l.13-.31-2.01.61c-1.34.41-2.92.73-4.73.96s-3.38.34-4.73.31-2.19-.34-2.54-.92-.18-1.11.53-1.58,1.25-1.31,1.66-2.54c.29-.88.74-2.38,1.36-4.51s1.44-4.45,2.49-6.96,2.36-4.76,3.94-6.74c1.69-2.16,3.3-3.66,4.81-4.51s2.74-1.33,3.68-1.44l1.4-.18Z"/><path class="cls-13" d="m24.93,66.85l9.37,2.1.13,1.4c.09.93.04,2.13-.13,3.59s-.57,3.01-1.18,4.64-1.62,3.21-3.02,4.73c-1.81,1.98-3.38,3.34-4.73,4.07s-2.39,1.12-3.15,1.18-1.17.03-1.23-.09c-.18-.18-.23-.51-.18-1.01s-.23-.83-.88-1.01c-.47-.18-1.23-.16-2.28.04s-2.16.47-3.33.79-2.17.58-3.02.79-1.33.25-1.44.13c-.12-.18.01-1.02.39-2.54s1.02-3.37,1.93-5.56,2.06-4.36,3.46-6.52,2.82-3.72,4.25-4.68,2.63-1.55,3.59-1.75l1.44-.31Z"/><path class="cls-14" d="m27.38,57.92l15.14,14.53-.61.7c-.41.47-.9,1.01-1.49,1.62s-1.14,1.15-1.66,1.62-.85.7-.96.7c-.35,0-1.46-.29-3.33-.88s-4.03-2.04-6.48-4.38c-1.28-1.28-2.28-2.55-2.98-3.81s-1.2-2.32-1.49-3.19-.44-1.4-.44-1.58c-.06-.18-.04-.35.04-.53s.36-.58.83-1.23c.29-.47.71-.98,1.27-1.53s1.05-1.04,1.49-1.44l.66-.61Z"/><path class="cls-16" d="m38.67,71.66l46.48-54.71,4.9,16.37-1.18,1.79c-.79,1.2-1.9,2.76-3.33,4.68s-3.06,4.03-4.9,6.3-3.78,4.49-5.82,6.65c-4.32,4.49-8.39,8.43-12.21,11.82-3.82,3.38-8.1,5.89-12.82,7.53-2.33.76-4.33,1.08-6,.96s-2.93-.38-3.81-.79l-1.31-.61Z"/><path class="cls-7" d="m53.38,62.74l1.09.61c.73.41,1.53.82,2.41,1.23.82.35,1.66.7,2.54,1.05l1.31.53,4.11-3.5-1.27-.35c-.85-.23-1.65-.55-2.41-.96-.82-.35-1.65-.73-2.49-1.14l-1.27-.61-2.89-.35-1.14,3.5Z"/><path class="cls-4" d="m66.77,10.04l18.99,16.63-1.53,2.32c-1.02,1.55-2.47,3.6-4.33,6.17s-4.06,5.38-6.56,8.45-5.28,6.14-8.32,9.23c-3.03,3.09-6.24,5.92-9.63,8.49-3.33,2.63-6.08,4.64-8.27,6.04s-3.9,2.41-5.12,3.02-2.09.98-2.58,1.09l-.74.18-1.23-.7c-.82-.47-1.84-1.18-3.06-2.14s-2.45-2.14-3.68-3.54c-1.69-2.04-2.76-4.13-3.19-6.26s-.28-4.74.48-7.83c.88-3.73,3.08-7.76,6.61-12.08s7.86-8.9,13-13.74c5.6-5.37,10.2-9.26,13.79-11.69l5.38-3.63Z"/><path class="cls-12" d="m83.05,31.14l3.94-.96,8.49-16.37.61-1.58c.41-1.05.85-2.32,1.31-3.81.47-1.49.74-2.89.83-4.2.09-1.31-.22-2.2-.92-2.67-.93-.7-2.36-1.05-4.29-1.05s-4.06.25-6.39.74-4.52,1.15-6.56,1.97c-4.61,1.81-7.97,3.4-10.07,4.77l-3.15,2.06.09,1.4c.06.93.39,2.26,1.01,3.98s1.74,3.72,3.37,6,3.36,4.13,5.16,5.56,3.36,2.48,4.64,3.15l1.93,1.01Z"/><path class="cls-9" d="m53.55,62.82l.66-.53c.44-.35.83-.64,1.18-.88.53-.47,1.01-.88,1.44-1.23l.66-.53-1.49-.83c-.99-.55-2.28-1.42-3.85-2.58s-3.18-2.63-4.81-4.38c-1.93-2.04-3.46-4.1-4.6-6.17s-2-3.98-2.58-5.73-.96-3.15-1.14-4.2l-.26-1.58-3.59,4.2.66,2.58c.44,1.72,1.28,3.88,2.54,6.48s3.08,5.27,5.47,8.01c1.23,1.46,2.6,2.73,4.11,3.81s2.83,1.94,3.94,2.58l1.66.96Z"/><path class="cls-10" d="m90.05,33.33l-.96-.18c-.64-.12-1.4-.29-2.28-.53-.7-.18-1.53-.48-2.49-.92l-1.44-.66,1.31-1.97c.88-1.31,1.97-3.03,3.28-5.16s2.61-4.39,3.9-6.78c2.45-4.49,4.1-8.17,4.95-11.03l1.27-4.29.57.83c.38.55.7,1.5.96,2.84s.28,3.15.04,5.43-.96,5.08-2.19,8.4c-1.69,4.84-3.27,8.39-4.73,10.63l-2.19,3.37Z"/><path class="cls-11" d="m30.27,53.98c-.41-.41-.54-1.09-.39-2.06s.42-1.85.83-2.67c.41-.7.96-1.36,1.66-1.97s1.31-.71,1.84-.31c.88.58.79,2.07-.26,4.46-.53,1.23-1.14,2.09-1.84,2.58s-1.31.48-1.84-.04Z"/><path class="cls-11" d="m67.29,13.37l.74.04c.5.03,1.01.1,1.53.22s.85.29.96.53c.06.23-.03.64-.26,1.23s-.5,1.14-.79,1.66l-.44.79-2.76,2.1c-1.84,1.4-4.13,3.3-6.87,5.69-1.98,1.75-3.95,3.6-5.91,5.56s-3.63,3.66-5.03,5.12-2.25,2.3-2.54,2.54c-.47.35-.93.45-1.4.31s-.82-.39-1.05-.74c-.23-.41-.34-.95-.31-1.62s.19-1.3.48-1.88c.29-.47,1.39-1.71,3.28-3.72s4.36-4.42,7.4-7.22c2.22-2.04,4.32-3.87,6.3-5.47s3.59-2.86,4.81-3.76l1.84-1.36Z"/><path class="cls-2" d="m67.29,13.37l.18.57c.12.38.29.89.53,1.53.23.58.48,1.12.74,1.62l.39.74,1.27-1.01c.85-.67,1.95-1.49,3.33-2.45,1.37-.96,2.82-1.94,4.33-2.93s3.02-1.9,4.51-2.71,2.67-1.55,3.54-2.19,1.2-1.23.96-1.75c-.29-.58-.95-.8-1.97-.66s-2.25.53-3.68,1.14c-1.43.61-2.93,1.3-4.51,2.06-1.69.82-3.27,1.69-4.73,2.63s-2.64,1.74-3.54,2.41l-1.36,1.01Z"/><path class="cls-8" d="m71.06,29.04c1.87,1.69,2.86,3.85,2.98,6.48s-.7,4.93-2.45,6.91c-1.28,1.52-2.77,2.48-4.46,2.89s-3.37.39-5.03-.04-3.08-1.21-4.25-2.32c-1.87-1.75-2.87-3.91-3.02-6.48s.6-4.81,2.23-6.74c1.05-1.28,2.38-2.22,3.98-2.8s3.3-.73,5.08-.44,3.43,1.14,4.95,2.54Z"/><path class="cls-7" d="m59.41,31.22c1.52-1.58,3.25-2.29,5.21-2.14s3.6.89,4.95,2.23c1.17,1.23,1.75,2.82,1.75,4.77s-.64,3.57-1.93,4.86-2.8,1.97-4.55,2.06-3.36-.39-4.81-1.44c-1.05-.82-1.78-1.87-2.19-3.15s-.48-2.58-.22-3.9.86-2.41,1.79-3.28Z"/><path class="cls-15" d="m38.58,59.93l-1.36,1.14c-.9.76-2.09,1.75-3.54,2.98s-3.01,2.54-4.64,3.94-3.19,2.76-4.68,4.07-2.73,2.42-3.72,3.33-1.58,1.47-1.75,1.71c-.23.47-.58,1.14-1.05,2.01s-.83,1.72-1.09,2.54-.28,1.37-.04,1.66c.35.41.88.8,1.58,1.18s1.14.57,1.31.57c.23.06.93-.36,2.1-1.27s2.54-2.03,4.11-3.37,3.06-2.71,4.46-4.11c1.4-1.34,2.87-2.87,4.42-4.6s3.01-3.4,4.38-5.03,2.44-3.03,3.19-4.2c1.23-1.75,1.93-3.31,2.1-4.68s.15-2.2-.09-2.49c-.18-.12-.55.04-1.14.48s-1.23.98-1.93,1.62-1.31,1.23-1.84,1.75l-.79.79Z"/><path class="cls-3" d="m15.04,80.42c0-.41.53-1.31,1.58-2.71s2.48-3.11,4.29-5.12,3.85-4.13,6.13-6.35c2.51-2.39,4.68-4.36,6.52-5.91s3.72-2.9,5.65-4.07c1.23-.82,2.22-1.27,2.98-1.36s1.3-.04,1.62.13l.48.26-27.57,28.01-.88-1.01c-.58-.67-.85-1.3-.79-1.88Z"/><path class="cls-1" d="m13.2,27.11c.29-.23.73-.39,1.31-.48s1.08.07,1.49.48c.35.35.54.83.57,1.44s-.1,1.06-.39,1.36c-.23.35-.66.6-1.27.74s-1.15.04-1.62-.31c-.53-.41-.79-.93-.79-1.58s.23-1.2.7-1.66Z"/><g class="cls-5"><path class="cls-1" d="m31.23,26.06c.23-.23.57-.36,1.01-.39s.8.07,1.09.31c.29.35.44.74.44,1.18s-.09.77-.26,1.01c-.23.29-.55.45-.96.48s-.79-.04-1.14-.22c-.29-.23-.48-.58-.57-1.05s.04-.9.39-1.31Z"/></g><path class="cls-1" d="m43.13,6.54h-.74c-.5,0-1.01.04-1.53.13-.53.09-.85.25-.96.48,0,.12.19.36.57.74s.77.73,1.18,1.05l.61.48-.22.74c-.15.5-.28,1.02-.39,1.58s-.09.92.09,1.09c.18.12.53.06,1.05-.18s1.01-.5,1.44-.79l.66-.44.66.35c.44.23.9.45,1.4.66s.8.25.92.13.13-.44.04-.96-.18-1.02-.26-1.49l-.13-.7.53-.48c.35-.32.69-.67,1.01-1.05s.42-.69.31-.92c-.06-.12-.35-.2-.88-.26s-1.04-.1-1.53-.13l-.74-.04-.22-.7c-.15-.47-.34-.95-.57-1.44s-.47-.74-.7-.74c-.18.06-.38.32-.61.79s-.45.93-.66,1.4l-.31.7Z"/><path class="cls-1" d="m77.18,75.08c-.29-.18-.54-.51-.74-1.01s-.19-.95.04-1.36c.23-.35.6-.61,1.09-.79s.92-.2,1.27-.09c.35.18.66.5.92.96s.31.93.13,1.4c-.23.53-.63.86-1.18,1.01s-1.06.1-1.53-.13Z"/><path class="cls-1" d="m91.28,50.83c.18.29.23.67.18,1.14s-.26.82-.61,1.05-.76.31-1.23.22-.82-.25-1.05-.48c-.23-.29-.36-.67-.39-1.14s.16-.88.57-1.23c.35-.35.79-.47,1.31-.35s.93.38,1.23.79Z"/></svg>