<?xml version="1.0" encoding="UTF-8"?><svg id="Emoji_enseignement_01" xmlns="http://www.w3.org/2000/svg" viewBox="0 0 100 100"><defs><style>.cls-1{fill:#f07371;}.cls-2{fill:#ffb3b3;}.cls-3{fill:#ea6363;}.cls-4{fill:#b05353;}.cls-5{fill:#e06767;}</style></defs><path class="cls-5" d="m47.92,73l1.68-.62c1.12-.41,2.42-.9,3.89-1.46s2.79-1.05,3.94-1.46,1.75-.62,1.81-.62.71-.15,1.95-.44,2.77-.66,4.6-1.11,3.64-.88,5.44-1.33,3.3-.81,4.51-1.11l1.81-.44,10.88,3.89.22,1.28c.15.86.28,1.81.4,2.88s.12,1.92,0,2.57c-.12.59-.4,1.47-.84,2.65s-1.25,2.54-2.43,4.07-2.86,3.13-5.04,4.78c-1.47,1.06-3.21,1.71-5.22,1.95s-4.1.18-6.28-.18-4.25-.88-6.19-1.59-3.6-1.45-4.95-2.21c-2.89-1.65-5.06-3.36-6.5-5.13s-2.42-3.27-2.92-4.51l-.75-1.86Z"/><path class="cls-4" d="m88.45,77.15l-1.37-.09c-.91-.06-2.08-.27-3.5-.62-1.36-.29-2.51-.65-3.45-1.06s-1.89-.47-2.83-.18c-.88.29-1.17.71-.84,1.24s.58.86.75.97c.71.41,1.46.75,2.26,1.02s1.61.49,2.43.66c1.89.41,3.2.69,3.94.84l1.11.22-.44.58c-.29.38-.53.69-.71.93-1.71-.18-3.42-.47-5.13-.88s-3.3-1-4.78-1.77c-1.71-.83-3.35-1.71-4.91-2.65s-2.99-1.33-4.29-1.15c-.77.12-.99.5-.66,1.15s.84,1.24,1.55,1.77c1.12.77,2.3,1.5,3.54,2.21s2.48,1.33,3.72,1.86c1.3.53,2.6,1.03,3.89,1.5s2.62.88,3.98,1.24l-1.59,1.24-1.5-.53c-1-.35-2.29-.83-3.85-1.42s-3.14-1.24-4.73-1.95c-1.36-.65-2.73-1.43-4.11-2.34s-2.64-1.68-3.76-2.3-1.98-.81-2.57-.58c-.59.29-.81.62-.66.97s.25.68.31.97c.24.59.96,1.28,2.17,2.08s2.48,1.53,3.8,2.21,2.29,1.17,2.88,1.46c2.83,1.3,5.09,2.12,6.77,2.48l2.52.53-1.59.35c-1.06.24-1.98.38-2.74.44-.59,0-1.68-.31-3.27-.93s-3.24-1.37-4.95-2.26c-2.6-1.36-4.51-2.6-5.75-3.72s-2.27-1.86-3.1-2.21c-.35-.12-.71-.19-1.06-.22s-.71.01-1.06.13c-.71.35-.99.84-.84,1.46l.22.93c-.83-.71-1.75-1.67-2.79-2.88s-1.81-2.32-2.34-3.32c-.06,0-.19-.22-.4-.66s-.4-.87-.58-1.28-.24-.62-.18-.62l1.68-.62c1.12-.41,2.42-.9,3.89-1.46s2.79-1.05,3.94-1.46,1.75-.62,1.81-.62.71-.15,1.95-.44,2.77-.66,4.6-1.11,3.64-.88,5.44-1.33,3.3-.81,4.51-1.11l1.81-.44,9.47,3.36c.06,1.3-.29,2.42-1.06,3.36-.35.41-.77.78-1.24,1.11s-.94.6-1.42.84l-.53.27c1,.41,2.05.81,3.14,1.19s2.11.72,3.05,1.02l-.22.66-.31.93Z"/><path class="cls-2" d="m94.82,42.82l.88,1.24c.59.83,1.24,2.09,1.95,3.8s1.24,3.92,1.59,6.64c.24,2.01.31,4.16.22,6.46s-.47,4.48-1.15,6.55-1.77,3.8-3.27,5.22-3.52,2.24-6.06,2.48c-1.3.12-2.62.03-3.98-.27s-2.62-.74-3.8-1.33c-.47-.18-.93-.37-1.37-.58s-.9-.37-1.37-.49c-.83-.12-1.68.03-2.57.44s-1.71.74-2.48.97c-.71.24-1.62.72-2.74,1.46s-2.62,1.46-4.51,2.17-4.28,1.09-7.17,1.15c-2.95.12-5.24.03-6.86-.27s-2.76-.6-3.41-.93l-.97-.49-1.24.04c-.83.03-1.73.09-2.7.18s-1.7.22-2.17.4c-2.18.77-4.45,1.12-6.81,1.06s-4.63-.5-6.81-1.33c-2.3-.83-4.34-2.01-6.11-3.54-.88-.77-1.55-1.68-1.99-2.74s-.9-2.12-1.37-3.19c-.29-.71-.65-1.08-1.06-1.11s-.97-.07-1.68-.13c-3.66-.41-6.96-1.83-9.91-4.25-2.01-1.59-3.47-3.63-4.38-6.11s-1.21-5.03-.88-7.65,1.37-4.94,3.14-6.95l-.13-1.68c-.09-1.12-.07-2.46.04-4.03s.47-2.96,1.06-4.2c.77-1.65,1.75-3.13,2.96-4.42s2.4-2.39,3.58-3.27,2.17-1.55,2.96-1.99l1.19-.66c3.01-2.54,6.11-4.47,9.29-5.8s6.24-2.21,9.16-2.65,5.54-.63,7.87-.58,4.19.19,5.57.4l2.08.31,1.42-.58c.94-.38,2.32-.72,4.11-1.02s3.97-.28,6.5.04,5.4,1.19,8.58,2.61l1.73.62c1.15.41,2.46.96,3.94,1.64s2.71,1.43,3.72,2.26c1.59,1.24,2.65,2.51,3.19,3.8l.8,1.95,1.24.31c.83.21,1.83.72,3.01,1.55s2.3,2.09,3.36,3.8c1.18,1.95,2.04,3.89,2.57,5.84.53,1.95.87,3.57,1.02,4.87l.22,1.95Z"/><path class="cls-3" d="m19.79,58.66l1.33-1.15v3.01c0,.06-.06.46-.18,1.19s-.24,1.56-.35,2.48-.22,1.71-.31,2.39l-.13,1.02-1.73.31c-1.15.21-2.55.1-4.2-.31-1.36-.29-2.79-.91-4.29-1.86s-2.64-1.68-3.41-2.21c-.18-.18-.4-.41-.66-.71s-.31-.53-.13-.71l.13-.22c.09-.15.22-.16.4-.04l2.57,1.28c1.12.56,2.3,1.02,3.54,1.37s2.36.32,3.36-.09c.59-.24,1.18-.8,1.77-1.68s1.09-1.74,1.5-2.57.68-1.33.8-1.5Z"/><path class="cls-1" d="m49.34,77.86c-1.06-.83-1.7-1.9-1.9-3.23s-.01-2.65.58-3.98,1.53-2.43,2.83-3.32l-11.77.62c1.95.41,3.19.86,3.72,1.33s.83,1.09.88,1.86c.12.71.1,1.59-.04,2.65s-.52,1.86-1.11,2.39-1.37,1.03-2.34,1.5l-1.46.71,1.06-.18c.71-.12,1.55-.24,2.52-.35s1.9-.21,2.79-.27c1.3,0,2.33.04,3.1.13l1.15.13Z"/><path class="cls-1" d="m85.17,52.91c1.59-.24,3.13-.83,4.6-1.77,1.53-.94,2.89-2.17,4.07-3.67s1.68-3.23,1.5-5.18c-.06-.83-.22-1.62-.49-2.39s-.6-1.5-1.02-2.21c.12,2.3-.31,4.48-1.28,6.55s-2.43,3.72-4.38,4.95c-.83.47-1.9.87-3.23,1.19s-2.7.01-4.11-.93c-.59-.35-1.15-.32-1.68.09-.29.29-.43.68-.4,1.15s.22.83.58,1.06c1.83,1.06,3.78,1.45,5.84,1.15Z"/><path class="cls-1" d="m94.11,56.8c.53,0,1.06-.09,1.59-.27.77-.12,1.08-.56.93-1.33s-.6-1.12-1.37-1.06c-.24,0-.44.07-.62.22s-.41.22-.71.22c-.35.06-.72-.04-1.11-.31s-.66-.52-.84-.75c-.71-.94-.86-1.95-.44-3.01l.4-.8c.15-.29.19-.59.13-.88-.41-.12-.84-.13-1.28-.04s-.87.19-1.28.31c-1.83.77-3.21,2.01-4.16,3.72.35.06.69.03,1.02-.09s.66-.21,1.02-.27c.88-.06,1.53.35,1.95,1.24.24.47.5.9.8,1.28s.68.72,1.15,1.02.94.5,1.42.62.94.18,1.42.18Z"/><path class="cls-1" d="m79.51,26.01c2.48-.29,4.35-.28,5.62.04s2.23.78,2.88,1.37,1.27,1.15,1.86,1.68l-.35-.93c-.24-.62-.53-1.14-.88-1.55s-.81-.88-1.37-1.42-1.28-.97-2.17-1.33c-2.18-.88-4.34-.94-6.46-.18-.35.12-.6.35-.75.71s-.13.71.04,1.06c.29.47.83.65,1.59.53Z"/><path class="cls-1" d="m71.55,24.42c.59,0,1.03.24,1.33.71s.35.9.18,1.28-.68.55-1.5.49-1.21-.09-1.15-.09.25.01.58.04l.49.04c-1.42,0-2.77-.24-4.07-.71-.53-.18-1.06-.37-1.59-.58s-1.06-.04-1.59.49c-.12.18-.25.37-.4.58s-.31.4-.49.58c-.47.47-.88.53-1.24.18-.24-.18-.34-.43-.31-.75s.1-.63.22-.93c.35-1.24.21-2.45-.44-3.63-.59-1.24-1.64-2.15-3.14-2.74s-2.88-.97-4.11-1.15c-.71-.12-1.06-.56-1.06-1.33.06-.77.4-1.15,1.02-1.15s1.3.15,2.04.44,1.28.5,1.64.62c.53.18,1.11.29,1.73.35s1.22-.03,1.81-.27c.77-.29,1.42-.69,1.95-1.19s1.21-.87,2.04-1.11c.71-.24,1.46-.37,2.26-.4s1.58-.01,2.34.04c1.12.06,2.11.32,2.96.8s1.55.93,2.08,1.37l.8.66c-.83-.12-1.89-.29-3.19-.53s-2.6-.34-3.89-.31-2.34.32-3.14.88-1.08,1.58-.84,3.05c.18,1.65.97,2.77,2.39,3.36s2.83.88,4.25.88h-.75s.25,0,.84,0Z"/><path class="cls-1" d="m31.64,21.68c.65.59,1.31,1.02,1.99,1.28s1.34.68,1.99,1.24,1.24,1.58,1.77,3.05c.18.53.03.94-.44,1.24h0c-.59.41-1.09.29-1.5-.35-.88-1.59-1.78-2.67-2.7-3.23s-1.96-.99-3.14-1.28c-1.12-.29-2.34-.34-3.67-.13s-2.49.52-3.5.93c-.65.35-1.18.21-1.59-.44h0c-.18-.29-.22-.62-.13-.97s.31-.62.66-.8c1.77-.83,3.72-1.18,5.84-1.06.29,0,.53-.1.71-.31s.27-.46.27-.75c-.24-1.06-.25-2.09-.04-3.1s.69-1.8,1.46-2.39c.94-.71,1.84-1.14,2.7-1.28l1.28-.22c-1.3.88-2.15,1.92-2.57,3.1s-.53,2.29-.35,3.32.5,1.75.97,2.17Z"/><path class="cls-1" d="m36.77,36.63c.24.77-.03,1.3-.8,1.59-.53.18-1.05.34-1.55.49s-1.02.22-1.55.22h-1.33c-.41,0-.83.21-1.24.62-.41.29-.63.63-.66,1.02s-.13.81-.31,1.28c-.12.35-.31.72-.58,1.11s-.52.75-.75,1.11c-.29.24-.63.35-1.02.35s-.69-.18-.93-.53h0c-.41-.53-.38-1.06.09-1.59.83-.83,1.25-1.8,1.28-2.92s-.13-2.12-.49-3.01c-.35-1.06-.87-2.02-1.55-2.88s-1.4-1.4-2.17-1.64c-.47-.12-.74-.44-.8-.97h0c-.06-.47.07-.84.4-1.11s.72-.34,1.19-.22c1,.35,1.89.84,2.65,1.46s1.56,1.93,2.39,3.94c.65.65,1.59,1.03,2.83,1.15s2.36.03,3.36-.27c.77-.24,1.27.03,1.5.8Z"/><path class="cls-1" d="m11.38,47.87c1.59,0,3.05-.37,4.38-1.11s2.23-1.73,2.7-2.96c.35-.83.46-1.68.31-2.57s-.46-1.74-.93-2.57c-.35-.59-.93-1.25-1.73-1.99s-1.47-1.52-2.04-2.34-.63-1.68-.22-2.57c.06-.18.15-.35.27-.53s.18-.35.18-.53c.12-.65-.09-.93-.62-.84s-.94.22-1.24.4c-.53.41-.86,1.03-.97,1.86-.18.71-.16,1.46.04,2.26s.55,1.43,1.02,1.9l1.86,1.86c.71.71,1.27,1.47,1.68,2.3s.44,1.65.09,2.48c-.29.83-.97,1.47-2.04,1.95s-2.18.65-3.36.53c-.47-.06-1.19-.29-2.17-.71s-1.95-1.31-2.92-2.7-1.67-3.58-2.08-6.59l-.27,2.04c-.18,1.36-.03,2.8.44,4.34.41,1.53,1.17,2.89,2.26,4.07s2.58,1.86,4.47,2.04h.88Z"/><path class="cls-1" d="m12.62,47.42l-.66-.35c-.44-.24-.9-.47-1.37-.71s-.74-.38-.8-.44c-.24-.06-.5-.06-.8,0s-.56.12-.8.18c-.18.06-.29.12-.35.18-.06.18,0,.38.18.62.65.77.99,1.56,1.02,2.39s.04,1.71.04,2.65c0,1.95.38,3.78,1.15,5.49.12.35.37.59.75.71s.72.06,1.02-.18c.59-.35.74-.86.44-1.5-.94-2.48-1.24-4.34-.88-5.57s.94-2.11,1.77-2.61,1.53-.93,2.12-1.28c0-.06-.1-.12-.31-.18s-.31-.12-.31-.18c.06-.35-.15-.53-.62-.53-.35.06-.66.18-.93.35s-.55.32-.84.44c-.65.29-1.3.41-1.95.35l2.12.18Z"/><path class="cls-1" d="m84.46,59.19c2.6.35,4.45,1.39,5.57,3.1,1.12,1.71,1.65,3.39,1.59,5.04,0,.24-.13.5-.4.8s-.59.43-.97.4-.75-.46-1.11-1.28-.69-1.75-1.02-2.79-.91-1.83-1.77-2.39-2.23-.52-4.11.13c-.77.24-1.53.56-2.3.97s-1.42.91-1.95,1.5c-.71.77-1.28,1.61-1.73,2.52s-1.08,1.7-1.9,2.34c-.94.71-1.83.88-2.65.53-.12-.06-.21-.12-.27-.18-.18-.24-.09-.5.27-.8.59-.65,1.14-1.37,1.64-2.17s.69-1.61.58-2.43c-.06-.29-.15-.5-.27-.62-.29-.41-.88-.86-1.77-1.33s-1.59-.74-2.12-.8c-.83,0-1.64.16-2.43.49s-1.58.6-2.34.84c-.83.24-1.7.55-2.61.93s-1.46,1.05-1.64,1.99c-.12.53-.1,1.08.04,1.64s.34,1.08.58,1.55.52.91.84,1.33.63.86.93,1.33c.18.29.27.56.27.8,0,.41-.24.68-.71.8-.35.06-.77,0-1.24-.18-.59-.29-1.09-.69-1.5-1.19s-.74-1.02-.97-1.55c-.29-.59-.52-1.19-.66-1.81s-.31-1.25-.49-1.9l-.35-.88c-.12-.29-.29-.53-.53-.71-.35-.29-.77-.43-1.24-.4s-.91.13-1.33.31c-.83.29-1.64.72-2.43,1.28s-1.67,1.28-2.61,2.17c-.65.65-1.36.87-2.12.66s-1.62-.31-2.57-.31c-.71,0-1.28-.04-1.73-.13l-1.99-.4c-.18-.06-.56-.19-1.15-.4s-1.18-.38-1.77-.53-1-.19-1.24-.13-.49.15-.75.27-.52.18-.75.18c-.29.06-.59.09-.88.09s-.44-.12-.44-.35c0-.12.03-.22.09-.31s.09-.16.09-.22l.35-1.06c.12-.35-.18-.88-.88-1.59-.29-.24-.56-.5-.8-.8s-.38-.65-.44-1.06.09-.77.44-1.06.74-.41,1.15-.35c.24.06.41.15.53.27s.19.25.22.4.1.28.22.4c1.83,1.53,3.67,2.55,5.53,3.05s3.54.66,5.04.49,2.61-.47,3.32-.88c1.47-.77,2.62-1.89,3.45-3.36s1.12-2.92.88-4.34c-.12-.47-.34-.91-.66-1.33s-.49-.86-.49-1.33c0-.41.15-.77.44-1.06.29-.18.68-.24,1.15-.18.88.06,1.49.5,1.81,1.33s.58,1.59.75,2.3c1,2.01,2.42,3.24,4.25,3.72,1.24.29,2.52.22,3.85-.22s2.46-1.19,3.41-2.26c.53-.53.96-1.12,1.28-1.77s.6-1.33.84-2.04c.24-.77.29-1.56.18-2.39s-.27-1.62-.44-2.39c-.06-.24-.1-.49-.13-.75s.04-.52.22-.75c.29-.47.74-.62,1.33-.44.47.18.83.53,1.06,1.06.41.88.63,1.81.66,2.79s-.04,1.93-.22,2.88c-.24.94-.35,1.84-.35,2.7s.29,1.67.88,2.43c.65.88,1.45,1.42,2.39,1.59.83.18,1.53.09,2.12-.27s1.21-.68,1.86-.97c.83-.29,1.68-.47,2.57-.53s1.74-.06,2.57,0Z"/><path class="cls-1" d="m32,72.29c.53.06.91-.18,1.15-.71.41-.94,1.12-1.74,2.12-2.39.71-.53,1.58-.9,2.61-1.11s1.9-.19,2.61.04l-.44-2.12c-2.18-.65-4.25-.27-6.19,1.15-1.42.94-2.39,2.09-2.92,3.45-.18.41-.16.8.04,1.15s.55.53,1.02.53Z"/><path class="cls-3" d="m85.7,34.06v.53c0,.59-.19,1.14-.58,1.64s-.81.93-1.28,1.28c-.53.35-1.08.65-1.64.88s-1.14.47-1.73.71l-.53.35-.53.35c-.24.41-.32.86-.27,1.33s.09.94.09,1.42c.06.41-.03.87-.27,1.37s-.56.69-.97.58c-.41,0-.71-.22-.88-.66s-.32-.87-.44-1.28c-.41-1.77-1.4-3.21-2.96-4.34s-3.26-1.8-5.09-2.04c-1.18-.12-2.37-.03-3.58.27s-2.29.8-3.23,1.5c-1.12.83-1.99,1.99-2.61,3.5s-.55,2.91.22,4.2c.18.35.4.74.66,1.15s.34.83.22,1.24c-.18.77-.65,1.15-1.42,1.15-.24,0-.47-.07-.71-.22s-.47-.28-.71-.4c-.77-.53-1.5-1.08-2.21-1.64s-1.5-.99-2.39-1.28c-.65-.18-1.31-.29-1.99-.35s-1.37,0-2.08.18c-2.6.65-4.51,1.4-5.75,2.26s-2.02,1.65-2.34,2.39-.46,1.25-.4,1.55c.06.41.19.81.4,1.19s.43.78.66,1.19c.18.24.37.5.58.8s.4.56.58.8c.12.29.25.58.4.84s.25.55.31.84c.06.77-.21,1.24-.8,1.42-.35.12-.68.09-.97-.09s-.56-.38-.8-.62c-.94-.83-1.83-1.64-2.65-2.43s-1.86-1.43-3.1-1.9c-1.12-.35-2.3-.53-3.54-.53s-2.33.38-3.27,1.15c-1.65,1.3-3.01,2.91-4.07,4.82s-1.71,3.91-1.95,5.97.06,3.92.88,5.57c.53,1,1.09,2.02,1.68,3.05s1.77,2.11,3.54,3.23c.24.18.29.38.18.62s-.32.32-.62.27c-.83-.29-1.73-.69-2.7-1.19s-1.84-1.14-2.61-1.9c-1.71-1.77-2.88-3.26-3.5-4.47s-.93-2.49-.93-3.85c0-2.65.53-5.13,1.59-7.43.35-.83.81-1.61,1.37-2.34s.97-1.5,1.24-2.3.16-1.67-.31-2.61c-.18-.35-.27-.62-.27-.8,0-.59.38-.91,1.15-.97.29,0,.58.06.84.18s.52.21.75.27c2.77,1.12,5.6,1.24,8.49.35,1.53-.53,2.77-1.27,3.72-2.21s1.95-1.98,3.01-3.1c.65-.65,1.34-1.21,2.08-1.68s1.52-.88,2.34-1.24l.18-.09c.35-.53.44-1.12.27-1.77s-.44-1.24-.8-1.77c-.29-.53-.59-1.09-.88-1.68s-.38-1.18-.27-1.77c-.53.24-1.12.35-1.77.35-.29,0-.47-.09-.53-.27,0-.06.03-.18.09-.35.18-.47.44-.87.8-1.19s.68-.69.97-1.11c.71-.88,1.3-1.89,1.77-3.01.47-1,.83-2.08,1.06-3.23s.24-2.29,0-3.41c-.29-2.01-1.24-3.54-2.83-4.6-.65-.41-.83-.94-.53-1.59.18-.35.44-.59.8-.71s.68-.06.97.18c.88.53,1.75,1.31,2.61,2.34s1.34,2.08,1.46,3.14v.44c0,.18.03.32.09.44.12.35.35.59.71.71s.71.18,1.06.18c1.59.06,3.2.58,4.82,1.55s2.52,2.34,2.7,4.11c.12.53.06,1.17-.18,1.9s-.77,1.46-1.59,2.17c-.29.24-.63.32-1.02.27s-.69-.24-.93-.53c-.35-.59-.27-1.12.27-1.59.29-.24.55-.53.75-.88s.31-.71.31-1.06c-.12-.59-.49-1.22-1.11-1.9s-1.4-1.11-2.34-1.28c-1.47-.29-2.61.01-3.41.93s-1.31,2.09-1.55,3.54-.27,2.89-.09,4.34.5,2.58.97,3.41,1.25,1.39,2.34,1.68,2.21.38,3.36.27,2.11-.38,2.88-.8,1.42-.94,1.95-1.59,1.06-1.33,1.59-2.04c1.42-1.77,3.04-2.88,4.87-3.32s3.8-.37,5.93.22c.83.24,1.65.52,2.48.84s1.59.72,2.3,1.19,1.45.94,2.21,1.42,1.62.65,2.57.53c.88-.12,1.62-.55,2.21-1.28s.86-1.55.8-2.43v-.31c0-.15.03-.25.09-.31.12-.53.53-.8,1.24-.8.53,0,.97.21,1.33.62s.59.88.71,1.42Z"/><path class="cls-1" d="m40.76,35.83c-.29,0-.47-.09-.53-.27,0-.06.03-.18.09-.35.18-.47.44-.87.8-1.19s.68-.69.97-1.11c.71-.88,1.3-1.89,1.77-3.01.47-1,.81-2.08,1.02-3.23s.22-2.32.04-3.5c-.29-1.95-1.27-3.48-2.92-4.6-.59-.35-.74-.88-.44-1.59.18-.29.44-.5.8-.62s.68-.06.97.18c.88.53,1.75,1.31,2.61,2.34s1.34,2.08,1.46,3.14v.4c0,.15.03.31.09.49.12.29.35.52.71.66s.71.22,1.06.22c1.59.06,3.2.58,4.82,1.55s2.52,2.34,2.7,4.11c.06.53-.01,1.17-.22,1.9s-.72,1.46-1.55,2.17c-.29.24-.63.32-1.02.27s-.69-.24-.93-.53c-.35-.59-.27-1.12.27-1.59.29-.29.55-.6.75-.93s.28-.66.22-1.02c-.06-.59-.4-1.22-1.02-1.9s-1.4-1.11-2.34-1.28c-1.47-.29-2.61,0-3.41.88s-1.33,2.06-1.59,3.54-.29,2.93-.09,4.38.55,2.58,1.02,3.41c.29.47.84.88,1.64,1.24s1.49.59,2.08.71l-1.11.13c-.74.09-1.55.28-2.43.58-.88.24-1.59.47-2.12.71l-.8.35c.35-.71.43-1.37.22-1.99s-.43-1.14-.66-1.55c-.29-.53-.6-1.09-.93-1.68s-.4-1.18-.22-1.77c-.59.24-1.18.35-1.77.35Z"/></svg>