<?xml version="1.0" encoding="UTF-8"?><svg id="Emoji_resultat_01" xmlns="http://www.w3.org/2000/svg" viewBox="0 0 100 100"><defs><style>.cls-1{fill:#3e2723;}.cls-2{fill:#a65f3e;}.cls-3{fill:none;isolation:isolate;opacity:.68;}.cls-4{fill:#a06841;}.cls-5{fill:#e6a467;}.cls-6{fill:#7a442c;}.cls-7{fill:#fff59d;}.cls-8{fill:#603c24;}</style></defs><rect class="cls-6" x="35.43" y="14.44" width="3.14" height="6.58"/><rect class="cls-6" x="64.58" y="14.44" width="3.14" height="6.58"/><path class="cls-6" d="m94.04,94.13c.88,0,1.6-.31,2.16-.92s.97-1.25,1.23-1.89l.4-.97c.65-3.34,1.09-7.25,1.32-11.7s.35-9.12.35-13.99-.09-9.62-.26-14.26c-.18-4.63-.37-8.81-.57-12.54s-.4-6.7-.57-8.93l-.26-3.34c0-1.58-.57-2.95-1.72-4.09s-2.51-1.72-4.09-1.72H7.89c-1.58,0-2.95.57-4.09,1.72s-1.72,2.51-1.72,4.09l-.22,2.95c-.15,1.97-.32,4.63-.53,8.01s-.4,7.25-.57,11.62-.26,8.98-.26,13.82.12,9.69.35,14.56.65,9.47,1.23,13.82l.31.97c.21.65.59,1.28,1.14,1.89s1.36.92,2.42.92h88.09Z"/><path class="cls-6" d="m94.04,94.13c.88,0,1.6-.31,2.16-.92s.97-1.25,1.23-1.89l.4-.97c.65-3.34,1.09-7.25,1.32-11.7s.35-9.12.35-13.99-.09-9.62-.26-14.26c-.18-4.63-.37-8.81-.57-12.54s-.4-6.7-.57-8.93l-.26-3.34c0-1.58-.57-2.95-1.72-4.09s-2.51-1.72-4.09-1.72H7.89c-1.58,0-2.95.57-4.09,1.72s-1.72,2.51-1.72,4.09l-.22,2.95c-.15,1.97-.32,4.63-.53,8.01s-.4,7.25-.57,11.62-.26,8.98-.26,13.82.12,9.69.35,14.56.65,9.47,1.23,13.82l.31.97c.21.65.59,1.28,1.14,1.89s1.36.92,2.42.92h88.09Z"/><path class="cls-6" d="m97.03,30.68h0c0,3.17-.09,6.06-.26,8.67s-.69,4.97-1.54,7.08-2.23,3.96-4.14,5.54-4.58,2.89-8.01,3.92-7.85,1.8-13.24,2.33c-5.4.53-12,.79-19.8.79-8.86,0-16.16-.41-21.91-1.23-5.75-.82-10.31-2.02-13.68-3.61-3.37-1.58-5.87-3.53-7.48-5.85-1.61-2.32-2.65-4.96-3.12-7.92s-.7-6.2-.7-9.72h-.26c.06-1.53.19-3.08.4-4.66s.72-2.93,1.54-4.05,2.2-1.67,4.14-1.67h82.1c1.41,0,2.64.47,3.7,1.41h0c.88.7,1.44,1.57,1.67,2.6s.37,2.08.4,3.17.1,2.16.22,3.21Z"/><path class="cls-2" d="m7.89,19.77h84.13c1.82.18,3.09.65,3.83,1.41s1.16,1.67,1.28,2.73.1,2.11-.04,3.17-.19,1.94-.13,2.64l-.4-.97c-.26-.65-.7-1.29-1.32-1.94s-1.45-.97-2.51-.97H7.72c-1.06,0-1.92.32-2.6.97s-1.17,1.29-1.5,1.94l-.48.97c.06-.76.03-1.67-.09-2.73s-.12-2.11,0-3.17.53-1.97,1.23-2.73,1.91-1.2,3.61-1.32Z"/><path class="cls-4" d="m97.83,24.79v.97c0,.06.01.13.04.22s.04.19.04.31v.53c0,.06.01.13.04.22s.04.16.04.22v.7c0,.18.03.29.09.35v.88c0,.12.01.23.04.35s.04.23.04.35v.53h-1.67v-4.49c0-1.06-.21-2.61-.62-4.66h0l.44.44h0c.12.12.23.26.35.44h0c.12.12.23.26.35.44v.09c.12.12.21.26.26.44v.09c.12.18.18.32.18.44l.04.04.04.04c.06.18.09.32.09.44,0,.06.01.1.04.13l.04.04c0,.18.03.32.09.44Z"/><path class="cls-4" d="m2.09,26.02v-.44c0-.18.03-.38.09-.62v-.26c.06-.12.09-.26.09-.44l.09-.18c0-.06.01-.12.04-.18s.04-.15.04-.26l.09-.18.18-.35c0-.06.03-.12.09-.18.06-.12.15-.26.26-.44v-.09c.35-.53.79-1,1.32-1.41-.23,1-.41,1.92-.53,2.77s-.18,1.57-.18,2.16v4.49h-1.67v-3.87c0-.06.03-.12.09-.18v-.35Z"/><path class="cls-1" d="m97.21,35h.97c0,3.81-.18,7.22-.53,10.21s-1.29,5.6-2.82,7.83-3.99,4.09-7.39,5.59c-3.4,1.5-8.13,2.63-14.17,3.39s-13.76,1.14-23.14,1.14-16.31-.41-22.18-1.23-10.53-2.02-13.99-3.61-6.04-3.51-7.74-5.76-2.82-4.85-3.34-7.79-.82-6.19-.88-9.77h.97c.06,3.93.5,7.13,1.32,9.59s2.58,4.81,5.28,7.04c3.11,2.52,7.95,4.4,14.52,5.63,6.57,1.23,15.14,1.85,25.7,1.85,11.2,0,20.11-.56,26.71-1.67,6.6-1.11,11.37-2.87,14.3-5.28,1.7-1.35,3.02-2.8,3.96-4.36s1.58-3.34,1.94-5.37.53-4.5.53-7.44Z"/><path class="cls-4" d="m98.09,30.24c0,3.23-.09,6.2-.26,8.93s-.69,5.18-1.54,7.35-2.24,4.06-4.18,5.68-4.66,2.96-8.18,4.05c-3.52,1.09-8.05,1.91-13.6,2.46-5.54.56-12.3.84-20.28.84-9.21,0-16.79-.44-22.75-1.32-5.95-.88-10.65-2.16-14.08-3.83s-5.95-3.71-7.57-6.12-2.64-5.16-3.08-8.27-.66-6.54-.66-10.3v-2.73c.06-.47.09-.82.09-1.06v-.35c0-1.88.76-3.4,2.29-4.58-.23,1-.41,1.92-.53,2.77s-.18,1.57-.18,2.16v3.78c0,2.93.12,5.68.35,8.23s.79,4.85,1.67,6.91,2.26,3.87,4.14,5.46c3.17,2.58,8.02,4.47,14.56,5.68,6.54,1.2,15.12,1.8,25.74,1.8,11.2,0,20.09-.54,26.66-1.63,6.57-1.09,11.35-2.83,14.34-5.24,1.76-1.47,3.02-3.2,3.78-5.19s1.22-4.28,1.36-6.86c.15-2.58.22-5.46.22-8.62v-4.31c0-1.06-.21-2.61-.62-4.66,1.29,1.17,1.94,2.61,1.94,4.31l.09,1.23c.06.82.15,1.97.26,3.43Z"/><path class="cls-8" d="m1.12,80.93l1.76,1.28c1.17.85,2.93,1.57,5.28,2.16,1.41.35,3.65.59,6.73.7,3.08.12,6.73.18,10.96.18s8.77-.01,13.64-.04c4.87-.03,9.77-.04,14.7-.04s9.71.07,14.34.22c4.63.15,8.84.21,12.63.18s6.85-.31,9.2-.84c2.41-.53,4.22-1.09,5.46-1.67s2.07-1.07,2.51-1.45l.66-.57c-.06.88-.16,1.92-.31,3.12s-.29,2.38-.44,3.52-.28,2.04-.4,2.68l-.4.97c-.26.65-.67,1.28-1.23,1.89s-1.28.92-2.16.92H5.96c-1.06,0-1.86-.31-2.42-.92s-.94-1.25-1.14-1.89l-.31-.97c-.06-.7-.16-1.66-.31-2.86s-.28-2.42-.4-3.65-.21-2.2-.26-2.9Z"/><path class="cls-6" d="m51.89,13.26c-1.47-.06-2.93.03-4.4.26s-2.82.59-4.05,1.06c-1,.35-1.89.7-2.68,1.06s-1.6.76-2.42,1.23c-.35.12-.98.13-1.89.04s-1.45-.66-1.63-1.72c-.18-.76.12-1.41.88-1.94s1.69-.97,2.77-1.32,2.04-.67,2.86-.97c1.64-.53,3.36-.91,5.15-1.14s3.59-.35,5.41-.35,3.67.12,5.54.35,3.67.67,5.37,1.32c1.17.41,2.39.78,3.65,1.1s1.98,1.01,2.16,2.07c.18,1,0,1.67-.53,2.02s-.97.56-1.32.62c-.41.12-1.03,0-1.85-.35s-1.61-.73-2.38-1.14-1.29-.67-1.58-.79c-1.29-.41-2.71-.75-4.27-1.01s-3.15-.4-4.8-.4Z"/><path class="cls-2" d="m51.72,10.36c-2.58,0-4.71.26-6.38.79s-3.02,1.13-4.05,1.8-1.83,1.19-2.42,1.54c-.23.18-.66.44-1.28.79s-1.22.57-1.8.66-.94-.28-1.06-1.1c-.18-1,.1-1.97.84-2.9s1.63-1.76,2.68-2.46,1.99-1.23,2.82-1.58c1.7-.76,3.46-1.29,5.28-1.58s3.64-.44,5.46-.44,3.78.16,5.72.48,3.75.89,5.46,1.72c1.23.59,2.45,1.42,3.65,2.51s1.86,2.33,1.98,3.74c.06.29,0,.59-.18.88s-.57.38-1.19.26-1.63-.67-3.04-1.67c-.88-.59-2.23-1.31-4.05-2.16s-4.63-1.28-8.45-1.28Z"/><g class="cls-3"><path class="cls-5" d="m35.7,14.32c.29.59.85.48,1.67-.31s1.94-1.54,3.34-2.24c.29-.12.75-.32,1.36-.62s1.19-.63,1.72-1.01.76-.78.7-1.19c-.06-.65-.5-.92-1.32-.84s-1.44.22-1.85.4c-1.47.59-2.87,1.44-4.22,2.55-.29.23-.69.69-1.19,1.36s-.57,1.31-.22,1.89Z"/></g><path class="cls-1" d="m54.97,70.28c.82,0,1.23-.38,1.23-1.14v-6.42c0-.76-.41-1.14-1.23-1.14h-9.94c-.82,0-1.23.38-1.23,1.14v6.42c0,.76.41,1.14,1.23,1.14h9.94Z"/><rect class="cls-5" x="43.36" y="54.27" width="13.29" height="5.28" rx=".88" ry=".88"/><path class="cls-5" d="m54.97,68.61c.59,0,.88-.26.88-.79v-5.63c0-.53-.26-.79-.79-.79h-10.03c-.59,0-.88.26-.88.79v5.63c0,.53.29.79.88.79h9.94Z"/><path class="cls-7" d="m45.64,56.91c0-.94-.06-1.51-.18-1.72s-.32-.31-.62-.31c-.53,0-.79.67-.79,2.02s.23,2.11.7,2.11c.29,0,.51-.12.66-.35s.22-.82.22-1.76Z"/><path class="cls-7" d="m46.7,64.83c0-.88-.03-1.53-.09-1.94s-.32-.62-.79-.62c-.41,0-.66.25-.75.75s-.13,1.1-.13,1.8c0,.94.04,1.66.13,2.16s.37.75.84.75c.41,0,.65-.25.7-.75s.09-1.22.09-2.16Z"/></svg>