<?xml version="1.0" encoding="UTF-8"?><svg id="Calque_2" xmlns="http://www.w3.org/2000/svg" viewBox="0 0 50 50"><defs><style>.cls-1{fill:#fff;}.cls-2{fill:none;}</style></defs><g id="Icones"><rect class="cls-2" width="50" height="50"/><path class="cls-1" d="m25,46.23c-11.71,0-21.23-9.52-21.23-21.23S13.29,3.77,25,3.77s21.23,9.52,21.23,21.23-9.53,21.23-21.23,21.23Zm0-38.6c-9.58,0-17.37,7.79-17.37,17.37s7.79,17.37,17.37,17.37,17.37-7.79,17.37-17.37S34.58,7.63,25,7.63Z"/><path class="cls-1" d="m22.99,35.85c-.68,0-1.33-.27-1.81-.75l-6.95-6.89c-1.01-1-1.02-2.63-.02-3.64,1-1.01,2.63-1.02,3.64-.01l4.92,4.88,9.87-12.25c.89-1.11,2.51-1.28,3.62-.39,1.11.89,1.28,2.51.39,3.62l-11.66,14.48c-.46.57-1.13.91-1.86.96-.05,0-.1,0-.14,0Z"/></g></svg>