<?xml version="1.0" encoding="UTF-8"?><svg id="Calque_2" xmlns="http://www.w3.org/2000/svg" viewBox="0 0 50 50"><defs><style>.cls-1{fill:#fff;}.cls-2{fill:none;}</style></defs><g id="Icones"><rect class="cls-2" width="50" height="50"/><path class="cls-1" d="m25,46.14c-11.65,0-21.14-9.48-21.14-21.14S13.35,3.86,25,3.86s21.14,9.48,21.14,21.14-9.48,21.14-21.14,21.14Zm0-38.43c-9.54,0-17.29,7.76-17.29,17.29s7.76,17.29,17.29,17.29,17.29-7.76,17.29-17.29S34.54,7.71,25,7.71Z"/><path class="cls-1" d="m28.62,25l5.33-5.33c1-1,1-2.62,0-3.62-1-1-2.62-1-3.62,0l-5.33,5.33-5.33-5.33c-1-1-2.62-1-3.62,0-1,1-1,2.62,0,3.62l5.33,5.33-5.33,5.33c-1,1-1,2.62,0,3.62.5.5,1.16.75,1.81.75s1.31-.25,1.81-.75l5.33-5.33,5.33,5.33c.5.5,1.16.75,1.81.75s1.31-.25,1.81-.75c1-1,1-2.62,0-3.62l-5.33-5.33Z"/></g></svg>